<?xml version="1.0" standalone="no"?>
<!DOCTYPE svg PUBLIC "-//W3C//DTD SVG 20010904//EN"
 "http://www.w3.org/TR/2001/REC-SVG-20010904/DTD/svg10.dtd">
<svg version="1.0" xmlns="http://www.w3.org/2000/svg"
 width="400.000000pt" height="274.000000pt" viewBox="0 0 400.000000 274.000000"
 preserveAspectRatio="xMidYMid meet">

<g transform="translate(0.000000,274.000000) scale(0.100000,-0.100000)"
fill="#000000" stroke="none">
<path d="M2505 2610 c-3 -5 -1 -10 4 -10 6 0 11 5 11 10 0 6 -2 10 -4 10 -3 0
-8 -4 -11 -10z"/>
<path d="M2537 2604 c-19 -10 -32 -12 -40 -5 -9 6 -20 4 -37 -9 -27 -21 -22
-37 7 -22 10 5 38 12 63 16 42 7 44 6 25 -9 -16 -12 -12 -12 19 2 38 17 38 18
12 21 -14 2 -24 8 -21 13 8 12 6 11 -28 -7z"/>
<path d="M1940 2601 c-19 -5 -25 -14 -27 -36 -2 -28 -1 -28 5 -5 7 21 14 25
47 25 29 0 41 -4 43 -17 2 -11 -5 -18 -20 -20 -25 -3 -36 -34 -19 -51 7 -7 15
-6 26 3 13 10 15 9 15 -9 0 -14 -8 -22 -27 -27 -16 -3 -34 -7 -40 -10 -9 -2
-13 9 -13 36 0 39 0 39 -35 33 -23 -4 -35 -2 -35 6 0 19 -39 12 -52 -9 -15
-24 -73 -28 -82 -5 -7 19 -33 19 -43 0 -6 -11 -28 -16 -72 -18 l-63 -2 3 -65
c2 -36 2 -86 1 -113 l-2 -47 -40 20 c-21 11 -43 20 -47 20 -4 -1 13 -12 40
-26 l47 -24 0 -160 c0 -153 -1 -160 -20 -160 -11 0 -20 -7 -20 -15 0 -10 -10
-15 -29 -15 -17 0 -32 -3 -34 -7 -2 -5 0 -37 3 -73 l7 -65 1 68 c2 48 6 67 15
67 21 0 28 -12 17 -26 -7 -7 -9 -53 -7 -110 l3 -99 2 103 c1 60 6 102 12 102
12 0 13 -12 10 -102 -1 -58 1 -68 19 -80 13 -8 21 -24 22 -43 l1 -30 8 33 c4
18 10 35 13 39 12 11 26 -8 25 -35 0 -15 2 -43 5 -62 4 -19 4 -29 1 -22 -9 20
-26 14 -19 -7 3 -11 1 -22 -5 -26 -5 -3 -10 -18 -9 -33 l1 -27 9 25 c6 18 7
10 3 -25 -4 -38 -13 -58 -39 -85 -42 -45 -55 -71 -55 -110 0 -26 5 -33 31 -42
22 -7 27 -14 20 -21 -6 -6 -11 -20 -11 -32 0 -12 -5 -26 -12 -33 -9 -9 -9 -12
1 -12 8 0 11 -6 7 -17 -4 -10 -4 -14 0 -11 4 4 20 -9 36 -30 16 -20 42 -45 58
-55 26 -17 31 -17 66 -2 47 19 76 44 67 58 -3 6 -1 7 5 3 6 -3 16 2 22 11 8
13 13 15 16 5 3 -7 19 -19 35 -27 41 -22 36 -39 -18 -66 -45 -23 -48 -26 -51
-69 -2 -30 -10 -48 -23 -58 -26 -18 -24 -48 4 -55 134 -31 184 -39 259 -38 94
1 202 28 251 63 24 17 27 17 27 3 0 -19 -61 -48 -151 -71 -106 -27 -323 -7
-402 37 -22 12 -47 -4 -47 -30 -1 -37 -11 -40 -120 -25 -58 7 -140 18 -183 24
-43 5 -82 12 -87 15 -5 3 -47 10 -92 15 -98 11 -283 67 -388 117 -89 42 -200
114 -200 129 0 17 39 47 144 109 116 68 164 88 271 109 44 9 97 23 118 31 20
8 52 15 70 15 39 0 101 28 143 63 29 24 66 34 137 36 14 1 17 9 15 44 l-1 42
-4 -38 c-6 -58 -23 -33 -25 36 -1 44 -3 51 -5 24 -3 -30 -8 -37 -19 -33 -9 3
-19 6 -23 6 -5 0 -11 42 -14 93 -8 121 -30 193 -73 233 -36 35 -103 70 -149
79 -16 3 -4 -5 27 -18 31 -12 67 -32 80 -44 13 -12 28 -21 33 -20 19 4 57 -92
62 -156 5 -58 3 -64 -23 -88 -31 -29 -101 -69 -120 -69 -7 0 -25 -7 -40 -15
-16 -8 -24 -15 -17 -15 6 0 20 -3 30 -6 14 -4 15 -4 4 4 -11 8 -9 11 8 17 11
3 26 3 32 -1 8 -5 9 -3 4 6 -6 10 -4 12 7 8 8 -4 30 2 47 13 44 27 52 23 16
-7 -34 -30 -3 -15 35 16 20 17 21 19 5 14 -16 -6 -18 -5 -7 7 9 10 15 10 24 1
9 -9 7 -17 -10 -35 -21 -23 -20 -37 2 -37 6 0 5 4 -2 9 -10 6 -10 10 3 21 13
11 15 10 12 -8 -4 -30 -12 -35 -34 -24 -20 11 -52 -1 -66 -25 -5 -8 -16 -12
-25 -9 -9 3 -24 1 -32 -4 -13 -9 -13 -10 0 -10 13 0 13 -2 0 -11 -12 -9 -11
-9 5 -4 11 4 29 9 40 12 20 4 20 4 1 -11 -15 -12 -16 -16 -5 -16 8 -1 -2 -9
-21 -20 -52 -29 -27 -24 31 6 33 16 50 21 47 12 -9 -28 -92 -59 -268 -99 -164
-38 -262 -77 -370 -149 -14 -9 -47 -31 -74 -49 -45 -30 -49 -31 -61 -14 -11
15 -11 21 3 38 17 20 17 20 -5 1 -27 -22 -30 -11 -7 24 l16 25 -20 -23 c-12
-12 -23 -18 -26 -13 -3 5 8 21 25 35 17 14 26 26 22 26 -5 0 -20 -11 -33 -25
-13 -14 -25 -23 -28 -21 -7 8 20 51 46 74 24 21 25 23 4 12 -13 -6 -31 -24
-41 -41 -10 -16 -21 -26 -24 -22 -9 8 18 51 52 82 22 19 20 19 -11 -3 -21 -15
-38 -23 -38 -18 0 5 17 26 38 47 25 26 30 34 14 26 -12 -7 -34 -30 -48 -51
-15 -22 -31 -37 -36 -34 -12 8 16 52 55 88 20 18 24 24 11 17 -12 -6 -36 -27
-54 -48 -17 -21 -29 -32 -25 -25 3 6 1 12 -5 12 -8 0 -8 6 0 20 6 11 14 19 18
17 4 -1 24 11 44 27 41 31 166 74 240 83 26 3 46 8 44 12 -2 3 42 5 97 5 78
-1 89 0 47 5 -46 6 -50 8 -25 12 l30 6 -32 2 c-18 0 -33 -3 -33 -9 0 -5 -5
-10 -11 -10 -6 0 -9 7 -6 14 4 10 1 13 -9 9 -7 -3 -14 -8 -14 -12 0 -3 -22 -4
-50 -3 -34 3 -50 0 -50 -8 0 -6 -6 -10 -12 -8 -7 3 -19 -2 -27 -10 -8 -7 -25
-12 -38 -9 -12 2 -23 0 -23 -4 0 -5 -9 -9 -19 -9 -11 0 -23 -4 -26 -10 -15
-24 -35 -9 -35 25 0 32 -8 43 -22 29 -3 -3 -2 -21 2 -40 8 -33 6 -35 -26 -49
-37 -15 -57 -12 -145 27 -75 34 -128 82 -123 111 4 18 3 19 -4 4 -14 -32 -31
2 -36 70 -2 34 -9 71 -15 82 -19 34 -12 48 8 15 39 -64 157 -143 240 -160 14
-3 -5 8 -42 23 -135 57 -203 129 -214 228 -9 84 39 142 145 176 32 10 50 18
41 18 -26 1 -101 -27 -139 -53 -35 -23 -63 -84 -62 -141 0 -52 14 -155 21
-155 5 0 6 -11 4 -24 -4 -19 -16 -27 -56 -40 -39 -12 -43 -15 -17 -11 19 2 46
7 59 11 39 11 22 -27 -19 -42 -19 -7 -30 -13 -23 -13 6 -1 23 3 37 9 15 5 28
6 31 0 5 -8 -54 -30 -84 -30 -8 0 -12 -3 -8 -6 3 -3 29 -1 58 5 39 9 55 8 66
0 11 -10 11 -14 1 -20 -9 -6 -4 -9 15 -9 43 0 31 -18 -15 -23 -38 -3 -37 -4 7
-3 59 1 144 -31 123 -47 -9 -6 -6 -7 10 -4 18 4 72 -8 91 -20 3 -2 -5 -13 -16
-26 -18 -19 -22 -43 -31 -192 -9 -154 -4 -268 14 -297 3 -4 -3 -8 -13 -9 -14
0 -14 -2 5 -9 12 -5 22 -14 22 -20 0 -6 11 -28 25 -48 l25 -37 -22 -7 c-22 -6
-22 -6 3 -7 15 -1 39 -15 58 -35 33 -34 33 -34 10 -39 -13 -2 -9 -3 8 -1 18 1
35 -1 38 -6 6 -9 93 -53 180 -90 38 -16 46 -23 35 -30 -13 -8 -12 -10 3 -10 9
0 17 4 17 10 0 5 7 7 15 4 20 -8 19 -21 -2 -28 -10 -2 -1 -2 20 1 34 5 95 -11
107 -28 3 -3 30 -9 60 -12 30 -3 46 -4 35 -1 -110 28 -402 148 -459 188 -52
38 -103 96 -126 144 -13 26 -28 56 -34 67 -13 26 -16 206 -3 198 7 -4 8 35 4
113 l-7 118 19 -30 c11 -17 35 -52 55 -78 20 -26 36 -55 36 -63 0 -9 3 -14 6
-10 3 3 32 -16 64 -41 62 -51 223 -135 280 -147 19 -4 69 -20 112 -36 42 -15
105 -31 140 -34 34 -4 95 -13 133 -21 39 -8 137 -23 218 -34 82 -11 153 -22
157 -25 11 -7 11 -383 0 -390 -5 -3 -7 -15 -5 -26 4 -21 2 -21 -68 -15 -40 4
-105 14 -146 22 -40 8 -76 12 -79 9 -3 -3 -1 -5 4 -5 5 0 40 -7 79 -15 38 -8
105 -18 147 -21 65 -6 78 -10 78 -24 0 -20 28 -40 85 -59 22 -7 47 -19 55 -26
44 -36 151 -60 225 -49 32 5 46 14 67 45 15 21 24 39 19 39 -5 0 -12 -6 -14
-12 -4 -9 -6 -9 -6 1 -1 21 -30 -19 -31 -41 0 -24 -20 -23 -20 0 0 33 26 57
62 57 18 0 55 9 81 20 37 15 50 26 54 46 6 30 31 39 112 39 56 1 229 28 185
29 -17 1 -53 -3 -80 -8 -27 -5 -84 -11 -127 -12 l-79 -4 3 175 c2 96 2 194 1
217 -1 40 1 43 31 48 34 6 284 32 432 45 97 8 252 31 380 56 44 9 104 20 132
25 29 5 79 19 110 31 32 12 60 22 63 23 27 3 106 54 121 79 l19 31 2 -80 c1
-53 3 -65 6 -35 2 25 1 78 -3 118 -5 57 -12 79 -32 102 -28 34 -49 40 -33 10
11 -20 -3 -30 -15 -10 -3 5 -16 15 -28 20 -13 7 -10 2 8 -12 47 -35 85 -79 85
-96 0 -11 -14 -3 -42 24 -24 22 -52 46 -63 54 -11 7 1 -6 28 -29 69 -62 75
-77 41 -112 -26 -27 -44 -30 -44 -8 0 6 5 7 10 4 21 -13 8 7 -32 52 -24 25
-41 48 -38 51 3 2 -6 11 -20 20 l-25 14 25 -21 25 -22 -25 6 c-23 5 -23 5 -5
-6 30 -17 85 -71 85 -83 0 -6 -17 7 -38 27 -53 52 -57 46 -5 -8 47 -50 53 -66
23 -60 -11 2 -22 0 -25 -6 -4 -5 -45 -10 -93 -11 l-87 -2 75 -5 c74 -6 74 -6
41 -18 -19 -7 -61 -14 -95 -14 -53 -1 -56 -3 -26 -9 29 -6 31 -8 9 -9 -14 0
-62 -10 -105 -21 -44 -10 -92 -19 -109 -19 -16 1 -73 -7 -125 -16 -52 -9 -122
-19 -155 -21 -33 -2 -73 -6 -90 -9 -38 -7 -321 -35 -356 -35 -27 0 -51 31 -30
38 6 2 11 19 11 38 0 27 -6 36 -30 49 -27 14 -30 20 -30 63 0 27 -5 53 -12 60
-9 9 2 12 52 12 53 0 72 5 125 35 56 31 135 103 135 123 0 4 -12 -8 -26 -26
-23 -29 -104 -92 -118 -92 -17 0 -1 20 40 51 25 19 53 48 61 64 12 24 7 20
-26 -17 -41 -47 -88 -80 -126 -92 -20 -6 -21 -3 -17 61 3 47 10 72 21 80 9 6
25 19 36 28 20 16 20 16 -2 5 -12 -5 -25 -15 -28 -20 -3 -6 -11 -10 -17 -10
-6 0 -3 10 8 22 19 21 19 21 0 14 -16 -5 -17 -4 -6 9 10 11 15 13 20 4 5 -7
10 -8 14 -1 4 6 22 8 41 5 l35 -6 0 52 c0 58 15 66 50 29 17 -19 21 -33 18
-75 -2 -28 0 -49 5 -46 13 8 7 93 -8 117 -14 21 -55 42 -122 61 -17 5 -22 1
-25 -16 -5 -39 -28 -35 -28 5 0 34 16 57 29 40 3 -5 25 -10 48 -10 55 -2 104
-31 125 -74 10 -19 18 -29 18 -22 0 29 -36 73 -72 89 -20 9 -41 26 -47 37 -7
12 -10 14 -7 5 2 -9 -2 -16 -10 -16 -8 0 -14 4 -14 7 0 18 36 34 81 36 46 2
49 1 49 -22 0 -20 5 -24 29 -24 16 0 41 -2 57 -4 16 -2 23 -1 17 1 -7 2 -14
19 -14 36 -2 30 -2 31 -6 5 -4 -24 -9 -28 -39 -28 -32 0 -33 1 -22 21 11 17
11 23 0 26 -6 3 -9 10 -5 16 12 19 11 57 -1 50 -6 -4 -5 1 3 10 9 11 10 17 2
17 -6 0 -11 5 -11 10 0 6 13 10 29 10 27 0 30 -4 34 -37 2 -21 3 -15 1 12 -2
28 -7 82 -12 120 -7 55 -9 61 -10 28 -1 -23 -7 -43 -12 -45 -6 -2 -11 -18 -13
-35 -1 -18 -8 -35 -14 -38 -7 -2 -13 -18 -13 -34 0 -35 -9 -42 -61 -48 -40 -5
-46 1 -30 26 7 11 13 12 23 3 11 -9 18 -7 32 9 16 19 16 22 2 38 -21 24 -20
41 3 41 22 0 35 38 19 57 -6 7 -8 27 -4 47 7 38 0 66 -19 66 -21 0 -40 29 -27
42 16 16 -7 60 -29 53 -9 -3 -27 -1 -41 5 -19 9 -23 18 -23 46 1 20 6 39 11
42 5 4 6 27 3 52 l-6 45 -1 -42 c-1 -24 -5 -43 -9 -43 -3 0 -36 5 -71 11 -63
11 -64 12 -41 26 16 10 18 12 4 7 -11 -4 -32 -9 -47 -12 -24 -4 -28 -1 -28 21
0 26 15 43 40 46 8 0 40 4 71 7 35 4 64 2 78 -5 20 -11 21 -10 15 16 -31 133
-123 212 -244 213 -30 0 -64 -3 -75 -6 -32 -8 -68 -71 -82 -143 l-12 -66 3 72
3 71 -24 -15 c-30 -20 -31 0 -1 21 19 13 22 26 24 78 1 44 6 65 18 73 9 7 16
21 16 32 0 10 4 23 9 29 6 5 -1 9 -19 10 -20 1 -27 -3 -23 -12 3 -8 0 -14 -7
-14 -6 0 -10 8 -8 18 2 12 14 18 46 19 24 2 41 -1 38 -6 -7 -11 17 -21 52 -21
14 0 37 -10 50 -22 l24 -23 19 24 c23 28 24 44 3 62 -12 10 -20 10 -35 1 -37
-24 -149 -11 -149 17 0 36 -27 47 -80 32z m264 -66 c3 -8 3 -22 0 -30 -7 -18
-41 -20 -46 -3 -2 6 -24 15 -49 19 l-44 8 47 -3 c32 -2 51 1 59 10 15 18 25
18 33 -1z m-350 -20 c3 -9 0 -15 -8 -15 -8 0 -16 -6 -19 -12 -7 -22 -19 -1
-12 21 7 24 30 28 39 6z m-133 -46 c4 -27 7 -34 7 -17 2 33 43 48 74 29 15 -9
23 -9 34 0 12 10 14 -3 16 -82 l2 -94 7 80 c4 48 5 17 2 -80 -2 -88 -6 -167
-9 -176 -2 -9 -16 -19 -29 -21 -15 -3 -22 -1 -18 5 6 10 -31 8 -162 -9 l-50
-7 24 26 c20 22 22 32 16 74 -7 50 16 133 37 133 5 0 7 -4 4 -8 -2 -4 -7 -27
-10 -50 -3 -34 -2 -41 8 -33 8 7 13 30 12 56 -1 25 3 45 9 45 5 0 20 3 32 6
33 9 63 -46 63 -115 0 -42 5 -60 22 -78 12 -13 26 -23 31 -23 5 0 -1 8 -14 19
-19 15 -24 32 -29 89 -6 64 -11 76 -43 112 -21 22 -37 47 -37 55 0 8 -4 15 -9
15 -14 0 -20 64 -7 72 8 6 7 8 -1 8 -7 0 -13 5 -13 11 0 6 6 9 13 7 6 -3 15
-24 18 -49z m192 34 c-7 -2 -21 -2 -30 0 -10 3 -4 5 12 5 17 0 24 -2 18 -5z
m-229 -30 c16 -51 5 -120 -22 -139 -27 -19 -43 -76 -40 -144 2 -40 -2 -55 -15
-65 -29 -21 -19 -32 38 -40 30 -3 57 -11 60 -16 9 -14 41 -11 55 6 15 18 80
20 80 3 -1 -7 -21 -30 -45 -51 -45 -39 -107 -57 -196 -57 l-35 0 -2 73 c-1 39
0 102 4 139 5 56 9 66 22 62 14 -5 14 -4 0 6 -15 9 -18 27 -18 120 l0 109 28
4 c62 9 81 7 86 -10z m239 -25 c4 -24 5 -78 4 -120 -1 -43 -1 -78 1 -78 2 0
12 5 23 10 10 6 19 7 19 2 0 -5 -10 -13 -22 -19 -19 -8 -21 -16 -19 -65 2 -53
-13 -88 -39 -88 -5 0 -11 90 -12 200 -3 199 -3 200 18 200 18 0 23 -8 27 -42z
m44 -38 c1 -30 -2 -40 -14 -40 -11 0 -13 4 -6 13 5 6 8 24 7 40 -2 15 0 27 4
27 4 0 8 -18 9 -40z m-247 -35 c0 -8 -4 -15 -9 -15 -13 0 -22 16 -14 24 11 11
23 6 23 -9z m250 -25 c0 -5 -6 -10 -12 -11 -10 0 -10 -2 0 -6 12 -5 7 -23 -7
-23 -7 0 -8 36 -2 48 3 7 21 1 21 -8z m184 -27 c-7 -21 -13 -50 -14 -64 0 -15
-7 -32 -15 -39 -23 -19 -75 38 -75 84 0 42 18 55 76 56 l42 0 -14 -37z m103
11 c62 -32 73 -50 34 -59 -16 -3 -47 -22 -69 -41 -38 -32 -71 -49 -44 -22 7 7
12 16 12 22 0 5 -6 1 -14 -10 -8 -10 -18 -16 -22 -12 -4 5 1 18 12 30 18 21
18 21 0 15 -16 -7 -18 -3 -11 29 7 41 25 74 40 74 5 0 33 -12 62 -26z m-180
-108 c14 -15 34 -26 42 -25 40 4 43 0 24 -31 -9 -16 -22 -30 -28 -30 -5 0 -34
11 -63 25 l-54 25 7 42 c4 24 12 52 18 63 10 19 11 18 19 -11 4 -17 20 -43 35
-58z m283 2 c32 -70 30 -73 -53 -73 -39 0 -82 -4 -93 -8 -34 -12 -39 19 -8 56
31 37 79 66 112 67 18 0 28 -10 42 -42z m-390 2 c0 -5 -8 -10 -17 -10 -15 0
-16 2 -3 10 19 12 20 12 20 0z m0 -34 c0 -8 -7 -16 -15 -20 -15 -5 -21 14 -8
27 11 12 23 8 23 -7z m148 -66 c6 0 12 -6 12 -13 0 -8 -19 -13 -56 -15 -69 -4
-99 16 -82 53 l10 23 52 -24 c28 -13 57 -24 64 -24z m-148 30 c0 -5 -6 -10
-12 -11 -10 0 -10 -2 0 -6 12 -5 7 -23 -7 -23 -7 0 -8 36 -2 48 3 7 21 1 21
-8z m206 -116 c-8 -20 -67 -47 -78 -36 -9 9 36 28 56 23 4 -1 6 9 2 23 -4 15
-1 27 7 30 9 5 9 7 -1 12 -10 5 -10 9 0 22 11 13 13 10 16 -22 2 -21 1 -44 -2
-52z m-188 63 c8 -10 2 -20 -24 -41 -27 -21 -33 -32 -28 -48 9 -29 -13 -14
-37 25 l-19 32 43 22 c50 26 52 27 65 10z m-242 -8 c3 -6 1 -16 -5 -22 -9 -9
-14 -8 -21 3 -9 15 -4 30 10 30 5 0 12 -5 16 -11z m116 -11 c-7 -7 -12 -8 -12
-2 0 6 3 14 7 17 3 4 9 5 12 2 2 -3 -1 -11 -7 -17z m256 -17 c-2 -9 -12 -17
-23 -20 -17 -3 -18 -1 -6 13 9 11 10 16 2 16 -6 0 -14 -6 -17 -14 -3 -8 -19
-19 -35 -25 -27 -9 -29 -8 -29 17 0 26 2 27 55 28 46 1 55 -2 53 -15z m-118
-11 c0 -5 -2 -10 -4 -10 -3 0 -8 5 -11 10 -3 6 -1 10 4 10 6 0 11 -4 11 -10z
m-111 -26 c15 -34 47 -49 60 -27 12 21 24 13 15 -11 -5 -14 -30 -21 -56 -17
-5 0 -8 -9 -8 -22 0 -12 -9 -28 -19 -34 -17 -11 -23 -9 -39 15 -11 15 -23 41
-26 59 -6 25 -3 34 13 45 29 21 48 18 60 -8z m251 17 c0 -5 -7 -12 -16 -15
-24 -9 -28 -7 -14 9 14 17 30 20 30 6z m84 3 c13 -5 12 -9 -7 -26 -20 -18 -19
-18 9 1 29 19 37 20 88 10 31 -7 56 -15 56 -20 0 -15 -53 -57 -66 -52 -7 2
-15 15 -18 27 -6 24 -32 30 -54 13 -7 -6 -25 -12 -40 -13 -15 -2 -38 -6 -51
-9 -22 -6 -23 -4 -11 10 8 10 23 15 37 12 12 -2 20 0 17 5 -7 11 5 48 16 48 5
0 15 -3 24 -6z m-249 -14 c-3 -5 -11 -10 -16 -10 -6 0 -7 5 -4 10 3 6 11 10
16 10 6 0 7 -4 4 -10z m102 -14 c-3 -8 1 -20 9 -26 8 -7 14 -19 14 -26 0 -8 6
-11 15 -8 10 4 15 0 15 -10 0 -13 4 -15 19 -6 11 5 28 10 37 10 15 0 15 -3 -4
-21 -12 -11 -20 -24 -17 -30 4 -5 -4 -9 -17 -10 -18 -1 -16 -3 10 -10 17 -5
32 -14 32 -20 0 -7 -7 -8 -17 -4 -10 4 -25 9 -35 12 -9 3 -18 13 -21 24 -4 14
0 19 16 19 18 0 19 2 7 10 -8 5 -20 10 -26 10 -17 0 -27 -31 -14 -44 13 -13
13 -29 0 -21 -5 3 -16 -5 -25 -19 -11 -17 -22 -23 -33 -18 -15 5 -15 4 1 -18
22 -31 44 -78 49 -105 2 -14 -3 -20 -17 -20 -16 0 -21 9 -27 40 l-6 40 2 -42
c1 -27 -3 -44 -11 -47 -9 -4 -13 5 -14 27 -1 29 -2 30 -8 8 -10 -36 -31 -38
-32 -4 -1 23 -2 24 -6 6 -2 -13 -9 -23 -14 -23 -6 0 -7 -4 -4 -10 3 -5 1 -10
-4 -10 -6 0 -11 8 -11 19 0 22 20 83 31 95 12 14 39 -13 32 -32 -4 -14 -3 -14
5 -3 7 10 7 21 1 33 -12 22 -6 23 15 2 14 -13 16 -14 16 0 0 8 -5 18 -10 21
-6 4 -8 16 -4 27 5 17 3 19 -18 12 -34 -10 -47 -10 -47 1 0 6 7 9 16 7 8 -2
12 1 8 7 -3 6 -12 11 -19 11 -9 0 -12 9 -8 27 3 17 -1 30 -12 38 -15 11 -14
14 9 29 14 9 25 25 25 35 0 16 6 18 35 16 19 -2 37 1 40 6 10 15 28 10 22 -5z
m-267 -44 c0 -7 -13 -25 -28 -40 -15 -15 -18 -19 -7 -9 29 23 49 22 64 -6 10
-18 9 -30 -4 -60 -16 -39 -25 -43 -56 -26 -17 9 -18 13 -7 27 11 15 11 15 -3
5 -29 -23 -30 0 -2 25 24 20 24 21 3 8 -33 -21 -40 -20 -40 7 0 32 60 113 71
95 5 -7 9 -19 9 -26z m421 -15 c-16 -16 -26 0 -10 19 9 11 15 12 17 4 2 -6 -1
-17 -7 -23z m49 8 c0 -21 41 -30 52 -11 13 24 41 21 33 -4 -4 -14 -2 -20 8
-20 8 0 20 -6 26 -14 7 -8 22 -11 38 -8 24 4 25 3 19 -21 -8 -34 2 -57 30 -67
21 -8 23 -14 17 -58 -3 -31 -1 -52 5 -56 14 -9 4 -36 -11 -30 -7 2 -18 -5 -25
-17 -11 -18 -11 -24 3 -39 21 -23 11 -44 -14 -30 -15 7 -20 4 -30 -17 -6 -14
-9 -33 -6 -42 4 -12 -3 -22 -22 -31 -16 -8 -32 -16 -37 -19 -5 -2 -6 2 -1 9 5
8 3 11 -6 8 -8 -3 -13 -12 -11 -22 2 -10 -4 -16 -18 -16 -11 0 -20 7 -20 15 0
9 -9 15 -22 16 -13 0 1 8 31 17 65 21 102 61 132 147 26 75 20 127 -24 192
-27 40 -41 51 -87 66 -45 15 -64 17 -105 9 -59 -12 -72 -7 -26 9 19 7 36 22
42 36 9 25 29 23 29 -2z m-81 1 c-12 -10 -59 -15 -59 -6 0 5 14 10 32 10 17 0
29 -2 27 -4z m-478 -38 c-11 -18 -25 -32 -31 -30 -5 1 -10 -2 -10 -8 0 -5 5
-10 10 -10 6 0 10 -9 10 -19 0 -18 -7 -20 -65 -18 l-65 2 0 52 0 52 53 4 c28
2 67 4 85 5 l34 2 -21 -32z m-161 -43 c0 -28 -4 -35 -20 -35 -16 0 -20 7 -20
35 0 28 4 35 20 35 16 0 20 -7 20 -35z m390 25 c0 -5 -4 -10 -10 -10 -5 0 -10
5 -10 10 0 6 5 10 10 10 6 0 10 -4 10 -10z m375 -1 c71 -18 135 -104 135 -182
0 -31 -38 -128 -65 -162 -19 -26 -37 -36 -79 -46 -68 -15 -113 -6 -156 30
l-34 28 44 -1 c42 -1 44 0 55 36 14 51 25 58 25 15 0 -32 3 -36 21 -34 11 2
34 16 50 31 20 19 35 26 49 21 26 -8 25 -18 -5 -52 -24 -28 -24 -28 -25 -5 0
23 -1 22 -26 -7 -27 -33 -50 -42 -40 -16 3 8 1 15 -4 15 -12 0 -13 -20 -2 -35
17 -25 51 -13 91 30 23 25 41 51 41 58 0 8 -26 21 -62 32 l-63 19 70 6 c39 3
76 9 84 14 33 21 -17 146 -59 146 -25 0 -52 -41 -44 -66 4 -14 3 -16 -4 -5 -8
11 -14 8 -28 -15 -10 -16 -22 -32 -27 -35 -5 -4 -6 -16 -2 -28 5 -15 2 -21 -9
-21 -10 0 -16 9 -16 25 0 14 3 25 8 25 11 0 54 128 47 140 -4 7 -27 10 -54 9
-35 -3 -46 0 -46 11 0 13 31 25 73 29 7 0 33 -4 57 -10z m-585 -61 c0 -4 -7
-8 -15 -8 -10 0 -15 10 -15 28 1 26 1 26 15 8 8 -11 15 -23 15 -28z m168 11
c-3 -8 -7 -3 -11 10 -4 17 -3 21 5 13 5 -5 8 -16 6 -23z m-19 -29 c0 -10 -3
-8 -9 5 -12 27 -12 43 0 25 5 -8 9 -22 9 -30z m359 23 c-18 -22 0 -28 23 -7
22 19 22 19 10 -4 -12 -23 -50 -27 -68 -7 -5 4 -2 5 6 0 11 -6 13 -4 8 7 -7
19 -2 25 18 25 11 0 12 -4 3 -14z m-78 -13 c27 -23 25 -24 -19 -9 -17 6 -31
15 -31 20 0 16 26 10 50 -11z m-40 -15 c0 -3 -9 -5 -20 -5 -11 0 -20 7 -20 15
0 13 4 14 20 5 11 -6 20 -13 20 -15z m-510 -2 c53 -7 60 -15 60 -68 0 -49 -8
-60 -40 -61 -14 0 -45 -3 -70 -5 l-45 -4 -3 63 c-2 50 0 63 13 69 14 5 14 8 3
15 -9 7 -5 8 12 3 14 -3 45 -9 70 -12z m785 -9 c9 -14 19 -41 22 -61 7 -41 -5
-53 -54 -53 l-33 0 0 63 c0 35 3 67 7 70 14 15 42 6 58 -19z m-675 4 c0 -9 3
-8 10 2 5 8 12 11 16 8 6 -7 -23 -50 -40 -59 -5 -2 -10 11 -12 29 -3 23 0 32
11 32 8 0 15 -6 15 -12z m224 -4 c3 -8 2 -12 -4 -9 -5 3 -31 -8 -57 -24 -45
-28 -77 -34 -41 -7 10 7 16 15 13 18 -3 2 5 4 18 4 12 -1 21 4 20 11 -2 7 4
10 12 7 8 -4 15 -1 15 5 0 16 17 13 24 -5z m-120 -15 c5 -5 4 -14 -3 -22 -11
-13 -6 -47 7 -47 3 0 14 7 24 17 10 9 21 13 24 10 4 -3 -9 -15 -27 -27 -35
-21 -96 -23 -92 -3 1 6 -5 10 -15 9 -24 -2 -26 27 -2 57 17 22 27 26 48 21 15
-4 31 -10 36 -15z m348 -106 c-23 -18 -29 -16 -41 15 -7 17 -10 19 -7 6 3 -21
-9 -53 -17 -44 -2 3 -13 33 -25 68 -20 60 -20 62 -2 62 13 0 23 -11 30 -32 9
-32 10 -32 4 7 l-6 40 41 -55 c36 -49 38 -56 23 -67z m20 100 c7 2 10 2 5 0
-4 -3 -4 -9 -1 -15 4 -6 -2 -6 -14 1 -35 19 -39 12 -6 -8 38 -23 48 -37 33
-47 -14 -8 -58 35 -64 64 -3 19 -1 21 15 12 10 -5 25 -8 32 -7z m68 3 c0 -2
-7 -9 -15 -16 -13 -11 -14 -10 -9 4 5 14 24 23 24 12z m-334 -77 c-8 -26 -20
-45 -30 -47 -22 -5 -20 7 10 51 14 21 24 40 22 42 -2 2 -15 -14 -28 -35 -14
-22 -30 -40 -37 -40 -21 0 -15 14 24 59 43 51 59 39 39 -30z m298 45 c3 -8 2
-12 -4 -9 -6 3 -10 10 -10 16 0 14 7 11 14 -7z m-493 -63 c0 -10 2 -12 6 -3 9
24 25 12 19 -15 -5 -25 -4 -26 5 -6 15 28 63 35 78 11 10 -15 6 -21 -21 -38
-35 -21 -56 -25 -73 -12 -22 15 -55 71 -55 93 0 21 1 22 20 4 11 -10 20 -25
21 -34z m478 -22 c-8 -5 -21 -9 -29 -9 -10 1 -7 7 10 21 17 14 26 17 28 9 3
-7 -2 -16 -9 -21z m-542 -50 c12 -31 25 -85 29 -121 6 -63 5 -66 -16 -73 l-23
-7 22 -13 c20 -10 21 -13 7 -18 -10 -4 -15 -3 -11 3 3 6 2 10 -4 10 -12 0 -26
-48 -17 -57 3 -4 6 1 6 10 0 10 2 17 4 17 2 0 11 3 20 6 33 13 15 -24 -20 -41
-36 -17 -64 -9 -64 18 0 7 4 7 12 -1 24 -24 30 -11 27 61 -3 83 -7 99 -22 90
-7 -4 -8 0 -4 11 4 10 7 34 7 53 0 48 10 36 16 -18 2 -24 8 -62 13 -84 l9 -40
1 35 c1 52 -23 143 -48 178 -20 28 -20 31 -4 35 31 8 37 2 60 -54z m16 30 c-9
-9 -12 -7 -10 9 1 14 5 18 11 12 7 -7 6 -14 -1 -21z m185 -24 c-1 -19 -5 -35
-10 -35 -5 0 -6 5 -3 10 3 6 -3 10 -14 10 -25 0 -26 8 -4 32 24 27 33 22 31
-17z m212 -8 c0 -32 -3 -38 -16 -33 -9 3 -31 6 -50 6 -26 0 -34 4 -34 18 0 9
-5 24 -10 32 -7 11 -8 5 -5 -20 5 -31 4 -33 -6 -13 -20 39 -6 50 60 50 l61 0
0 -40z m215 29 c25 10 24 -13 -1 -37 -22 -21 -24 -21 -18 -4 7 18 6 19 -12 5
-14 -10 -16 -11 -7 0 10 11 10 17 0 29 -9 12 -9 13 1 7 7 -4 12 -2 13 6 0 9 2
10 5 1 3 -7 11 -10 19 -7z m-573 -51 c-10 -12 -11 -15 -2 -7 24 20 34 13 14
-10 l-19 -22 25 17 c32 22 46 22 29 0 -11 -15 -10 -14 9 1 20 18 27 15 23 -8
-1 -5 5 -4 13 3 8 7 23 11 33 8 26 -6 -44 -36 -104 -44 l-46 -6 7 27 c5 20 4
26 -5 20 -8 -4 -9 -3 -5 4 4 6 2 20 -3 30 -15 29 7 47 30 24 15 -16 15 -19 1
-37z m185 18 c-3 -10 -5 -4 -5 12 0 17 2 24 5 18 2 -7 2 -21 0 -30z m212 5 c1
39 17 42 24 5 6 -34 1 -43 -24 -43 -16 0 -19 7 -18 38 l2 37 7 -35 7 -35 2 33z
m-182 0 c-3 -8 -6 -5 -6 6 -1 11 2 17 5 13 3 -3 4 -12 1 -19z m-112 -15 c20
-15 19 -15 -5 -9 -14 3 -29 6 -33 6 -5 0 -5 5 -2 10 8 14 16 12 40 -7z m376 4
c-6 -8 -7 -18 -3 -22 4 -5 1 -5 -6 -1 -10 6 -10 11 -1 22 6 8 14 14 16 14 3 0
0 -6 -6 -13z m-311 -27 c0 -5 -5 -10 -11 -10 -5 0 -7 5 -4 10 3 6 8 10 11 10
2 0 4 -4 4 -10z m20 -28 c-138 -44 -201 -60 -197 -49 2 6 30 18 63 27 32 10
84 26 114 36 30 11 64 17 75 15 13 -3 -5 -13 -55 -29z m213 -2 c9 -11 14 -28
11 -37 -4 -12 -3 -14 3 -6 7 10 19 9 56 -5 25 -10 49 -20 52 -24 3 -3 -17 -32
-44 -63 -55 -63 -63 -85 -30 -85 17 0 20 4 16 22 -7 27 7 54 36 69 l22 12 -22
-25 c-13 -13 -23 -28 -23 -34 0 -5 5 -1 11 9 13 23 29 22 29 -3 0 -40 74 -54
105 -20 14 16 21 18 28 8 7 -10 10 -10 14 -1 9 24 33 -14 33 -52 l0 -36 -47 6
c-27 3 -68 2 -93 -3 -38 -8 -40 -10 -14 -11 l31 -1 -1 -91 c-1 -75 -4 -94 -18
-103 -13 -8 -21 -7 -30 3 -8 9 -9 12 -1 7 6 -3 14 -3 17 2 2 4 -7 9 -21 10
-35 3 -38 7 -19 34 22 31 20 45 -8 73 l-24 24 22 4 c11 2 -13 5 -54 6 -54 2
-70 5 -55 12 18 8 18 8 -5 6 -20 -1 -26 3 -28 22 -2 13 1 28 7 34 6 6 11 23
11 38 0 26 71 119 91 119 6 0 -6 -17 -25 -37 -20 -21 -36 -42 -36 -46 0 -4 14
8 31 28 17 19 36 35 42 35 6 0 -5 -17 -24 -37 l-34 -37 41 34 c25 22 38 39 32
46 -4 6 -5 14 -2 17 4 4 -12 9 -35 13 -32 5 -45 13 -52 30 -4 13 -13 24 -19
24 -5 0 -10 7 -10 15 0 21 12 19 33 -5z m192 1 c-3 -6 -11 -11 -17 -11 -6 0
-6 6 2 15 14 17 26 13 15 -4z m-350 -1 c-3 -5 -1 -10 5 -10 6 0 8 -4 5 -10 -3
-5 -2 -10 3 -10 11 0 34 25 28 31 -2 2 14 5 36 6 32 2 39 0 36 -14 -2 -9 -9
-18 -17 -21 -9 -3 -11 0 -6 9 6 11 5 12 -6 2 -16 -16 -33 -17 -23 -1 4 7 3 8
-5 4 -6 -4 -9 -11 -7 -15 3 -4 -7 -6 -22 -5 -15 1 -27 2 -27 3 0 2 -8 4 -17 6
-22 4 -29 -29 -18 -85 5 -25 9 -48 10 -52 0 -5 -16 -8 -35 -8 -29 0 -35 4 -36
23 -1 17 -3 16 -9 -8 l-7 -30 -11 25 -11 25 0 -26 c-1 -33 -10 -42 -29 -26
-13 10 -15 9 -9 -7 5 -13 0 -24 -20 -40 -28 -23 -64 -45 -74 -46 -10 0 -6 65
4 72 6 3 11 19 12 35 1 15 5 37 10 47 6 14 5 17 -3 12 -8 -5 -12 2 -11 21 0
15 3 22 6 16 2 -7 11 -13 18 -13 7 0 15 -6 18 -12 2 -7 7 1 11 19 4 17 14 34
23 37 10 4 13 2 10 -7 -3 -8 1 -14 9 -14 7 0 16 9 20 19 3 10 10 18 15 18 6 0
5 -8 -1 -21 -7 -11 -10 -23 -7 -25 2 -3 10 8 16 24 9 21 24 33 59 44 58 20 65
21 57 8z m142 -50 c2 -12 -4 -31 -12 -40 -14 -16 -14 -18 -1 -23 10 -4 20 2
27 15 9 16 8 19 -3 13 -7 -5 -10 -4 -5 0 8 9 47 15 47 7 0 -2 -16 -23 -37 -45
-27 -31 -35 -35 -31 -19 4 12 2 22 -2 22 -5 0 -10 -24 -12 -52 -2 -37 -7 -52
-16 -50 -7 1 -35 3 -62 4 -28 2 -50 6 -50 10 0 4 19 17 42 29 41 21 67 45 68
62 0 4 -9 -2 -20 -13 -26 -26 -55 -27 -41 -2 16 30 53 59 58 44 3 -6 9 -9 14
-6 15 9 -22 33 -50 34 -25 0 -61 -25 -61 -44 0 -6 7 0 16 12 8 12 22 22 30 22
11 0 9 -8 -8 -34 -18 -28 -25 -32 -37 -23 -12 10 -12 9 -2 -11 6 -12 9 -28 4
-35 -9 -15 -21 23 -22 75 -1 40 2 42 82 54 39 5 47 4 47 -10 0 -9 4 -16 9 -16
4 0 6 12 3 26 -3 19 -1 25 8 22 7 -2 15 -15 17 -28z m408 10 c3 -5 2 -10 -4
-10 -5 0 -13 5 -16 10 -3 6 -2 10 4 10 5 0 13 -4 16 -10z m-909 -88 c-8 -34
-19 -69 -26 -77 -10 -12 -10 -15 1 -15 8 0 4 -9 -11 -20 -15 -12 -18 -18 -7
-14 9 3 17 1 17 -5 0 -6 -2 -11 -4 -11 -2 0 -12 -3 -22 -7 -12 -4 -15 -3 -10
5 4 7 2 12 -4 12 -7 0 -10 -6 -7 -12 2 -7 12 -12 21 -12 9 1 16 -2 16 -7 0 -5
-11 -9 -25 -9 -32 0 -34 34 -4 50 11 7 18 14 15 17 -3 4 -1 12 5 19 6 8 6 14
0 18 -15 10 -51 -44 -51 -76 0 -21 6 -31 20 -35 11 -3 20 -10 20 -15 0 -10
-39 -1 -54 12 -23 22 42 150 76 150 6 0 6 -6 -2 -15 -11 -13 -10 -14 4 -9 14
5 16 14 11 40 -4 23 -1 41 11 59 9 14 18 24 20 23 1 -2 -3 -31 -10 -66z m144
58 c0 -5 -5 -10 -11 -10 -5 0 -7 5 -4 10 3 6 8 10 11 10 2 0 4 -4 4 -10z
m-290 -41 c0 -15 -5 -18 -25 -15 -15 3 -25 0 -26 -7 0 -9 -2 -8 -6 1 -2 6 -22
12 -43 12 -21 0 -41 -6 -43 -12 -3 -8 -6 -7 -6 4 -1 22 17 32 49 30 15 -1 35
4 45 12 24 18 55 4 55 -25z m830 -29 c0 -63 -13 -77 -31 -36 -15 31 -3 96 16
96 12 0 15 -14 15 -60z m17 -42 c-2 -13 -4 -3 -4 22 0 25 2 35 4 23 2 -13 2
-33 0 -45z m-427 -17 c-66 -26 -86 -41 -109 -82 -27 -47 -27 -83 0 -126 27
-44 66 -63 129 -63 54 0 60 -13 13 -31 -16 -6 -31 -5 -46 3 -12 7 -27 11 -33
10 -6 -1 -32 20 -58 47 -39 43 -46 56 -46 92 0 66 35 112 120 156 14 7 36 13
50 12 20 0 15 -4 -20 -18z m55 -12 c-6 -9 45 -30 56 -24 5 4 9 2 9 -4 0 -5 -4
-13 -10 -16 -5 -3 -10 -12 -10 -18 0 -7 8 0 18 16 9 15 22 27 29 27 18 0 16
-10 -4 -34 -17 -20 -17 -20 0 -7 15 12 17 11 17 -8 0 -14 8 -23 25 -27 19 -5
24 -11 21 -28 -3 -11 -7 -44 -11 -72 l-5 -51 46 -1 c35 -1 51 -7 68 -25 l22
-23 -53 1 c-29 1 -53 -2 -53 -6 0 -5 -7 -9 -15 -9 -8 0 -15 9 -15 20 0 11 -5
20 -11 20 -6 0 -9 9 -6 20 4 17 2 20 -14 15 -34 -11 -192 -13 -213 -3 -31 14
-57 55 -63 96 -7 52 39 114 99 135 44 15 80 18 73 6z m-355 -112 c-42 -80 -38
-127 15 -175 20 -19 34 -37 30 -40 -4 -4 -26 14 -51 40 -54 57 -57 93 -16 172
16 29 32 64 36 77 7 21 9 22 13 5 3 -10 -9 -46 -27 -79z m100 78 c0 -8 -9 -19
-20 -25 -21 -11 -29 -70 -10 -70 6 0 10 -5 10 -11 0 -10 -56 -6 -67 4 -1 2 6
28 16 58 11 30 20 50 20 46 1 -4 9 -3 19 2 24 14 32 13 32 -4z m45 -56 c-4
-12 -8 -28 -9 -35 -1 -7 -6 -17 -11 -21 -4 -4 -5 -2 0 6 6 10 4 12 -4 7 -10
-6 -9 -12 2 -24 24 -29 28 -40 16 -48 -8 -5 -9 -3 -4 6 5 9 4 11 -3 6 -9 -5
-9 -13 -2 -27 6 -10 9 -19 6 -19 -2 0 -11 -3 -20 -6 -14 -5 -16 4 -16 65 0 58
-3 69 -15 65 -10 -4 -15 0 -15 15 0 12 6 21 15 21 8 0 15 -5 15 -12 0 -8 6 -6
17 5 24 23 36 21 28 -4z m418 -31 c-17 -8 -23 -20 -23 -42 0 -36 7 -48 35 -64
19 -11 19 -11 -5 -12 -57 0 -69 9 -64 48 11 80 12 82 47 81 30 0 31 -1 10 -11z
m-1651 -20 c-7 -7 -12 -8 -12 -2 0 14 12 26 19 19 2 -3 -1 -11 -7 -17z m1728
-9 c16 -29 7 -33 -30 -14 -18 9 -34 14 -38 11 -3 -3 1 -6 9 -7 8 0 6 -4 -6 -9
-17 -6 -14 -9 18 -15 47 -9 56 -22 21 -31 -46 -12 -73 24 -56 74 7 21 70 15
82 -9z m-590 -29 c4 -16 12 -24 23 -22 13 2 17 -5 17 -28 0 -30 1 -31 37 -24
l36 7 -19 -21 c-60 -64 -146 -36 -161 52 -8 50 1 68 34 64 19 -2 29 -10 33
-28z m40 -1 c0 -5 -7 -9 -15 -9 -15 0 -20 12 -9 23 8 8 24 -1 24 -14z m1860
-39 c6 -11 9 -20 7 -20 -2 0 -12 9 -22 20 -10 11 -13 20 -7 20 6 0 16 -9 22
-20z m-1782 -9 c3 -8 -1 -12 -9 -9 -7 2 -15 10 -17 17 -3 8 1 12 9 9 7 -2 15
-10 17 -17z m284 -54 c-5 -7 -8 -30 -6 -53 3 -27 0 -41 -9 -42 -28 -3 -73 -5
-94 -4 -18 2 -23 8 -23 31 0 28 22 61 40 61 5 0 11 -21 13 -47 3 -43 4 -42 5
15 1 36 6 62 13 62 7 0 8 -19 4 -57 -6 -52 -6 -56 8 -39 8 11 13 32 12 48 -2
20 4 33 19 43 22 16 35 4 18 -18z m314 -4 c-15 -8 -33 -12 -39 -10 -6 2 2 10
18 19 38 18 58 10 21 -9z m-96 3 c0 -3 -4 -8 -10 -11 -5 -3 -10 -1 -10 4 0 6
5 11 10 11 6 0 10 -2 10 -4z m-106 -43 c3 -8 1 -11 -4 -8 -5 3 -18 1 -27 -4
-10 -6 -13 -11 -8 -11 20 -1 -21 -20 -42 -20 -18 0 -23 6 -23 28 0 26 3 27 50
28 33 1 51 -3 54 -13z m50 1 c24 -9 3 -38 -46 -63 -24 -11 -36 -21 -28 -21 9
0 32 11 53 25 l37 26 0 -56 0 -56 -47 -21 c-27 -12 -79 -27 -118 -34 l-70 -13
60 5 c93 8 185 44 185 71 0 16 26 17 36 1 12 -19 -41 -56 -111 -77 -104 -32
-244 -30 -360 6 -65 20 -68 22 -54 39 13 16 34 19 24 4 -3 -5 25 -18 62 -29
81 -23 155 -35 133 -21 -8 5 -23 10 -32 10 -12 0 -18 8 -19 23 0 21 -1 21 -9
2 -7 -17 -9 -16 -9 10 -1 44 9 53 59 58 38 3 34 4 -19 5 -77 2 -160 37 -139
58 18 17 73 31 64 16 -4 -7 14 -17 51 -28 50 -15 66 -15 123 -4 79 15 154 46
145 60 -7 11 5 13 29 4z m-401 -85 c31 -16 37 -29 36 -69 l-2 -35 -7 35 c-7
31 -7 32 -9 8 -2 -41 -36 -38 -45 3 -8 39 -8 69 0 69 3 0 15 -5 27 -11z m66
-56 c0 15 5 27 10 27 8 0 4 -68 -5 -79 -10 -12 -24 16 -23 47 l1 37 8 -30 8
-30 1 28z m-89 -229 l6 -129 2 108 2 108 180 -3 c99 -2 180 -5 180 -8 0 -4 -5
-11 -12 -18 -9 -9 -9 -12 3 -12 12 0 12 -2 -1 -10 -8 -5 -10 -10 -3 -10 14 0
5 -82 -11 -92 -8 -5 -7 -8 2 -8 15 0 13 -60 -3 -60 -5 0 -3 -5 5 -10 13 -9 13
-11 0 -20 -13 -9 -13 -10 0 -10 11 -1 10 -4 -4 -15 -17 -13 -18 -15 -3 -15 18
0 23 -15 8 -24 -5 -3 -7 -19 -5 -36 2 -19 -1 -30 -9 -30 -9 0 -8 -3 1 -9 11
-6 10 -11 -3 -25 -11 -10 -12 -16 -4 -16 7 0 10 -2 8 -4 -4 -4 -50 -8 -229
-18 -8 -1 -32 0 -52 0 l-37 2 -4 53 -3 52 -2 -53 c-3 -73 -1 -74 233 -59 88 5
123 11 131 22 15 20 25 133 29 317 2 81 6 152 9 157 3 5 19 11 36 13 30 4 30
4 31 -41 2 -140 -2 -374 -8 -424 -5 -56 -7 -58 -48 -76 -36 -16 -78 -20 -247
-25 -121 -4 -209 -3 -217 3 -22 14 -23 29 -28 229 -3 100 -8 180 -12 177 -5
-2 -5 13 -1 34 4 21 5 47 3 59 -1 12 1 32 7 46 8 21 13 23 37 17 l28 -7 5
-130z m82 107 l43 -9 -57 -1 c-53 -1 -68 5 -52 22 4 4 11 4 15 1 5 -3 28 -9
51 -13z m253 -11 c-11 -5 -45 -8 -75 -8 l-55 1 55 7 c30 4 64 7 75 8 l20 1
-20 -9z m50 -120 c-2 -11 1 -20 8 -20 8 0 8 -3 -1 -12 -14 -14 -16 -42 -2 -33
6 3 10 2 10 -4 0 -5 -4 -12 -10 -16 -5 -3 -7 -13 -4 -23 4 -12 3 -13 -3 -5 -7
10 -10 117 -4 131 5 10 9 -2 6 -18z m-468 -72 c-3 -8 -6 -5 -6 6 -1 11 2 17 5
13 3 -3 4 -12 1 -19z m469 -105 c-1 -30 -6 -48 -15 -51 -11 -4 -12 0 -6 14 4
11 9 33 10 49 3 32 3 35 8 35 2 0 3 -21 3 -47z m-6 -93 c0 -16 -4 -30 -8 -30
-9 0 -13 27 -6 48 6 22 14 13 14 -18z m-10 -50 c0 -5 -5 -10 -11 -10 -5 0 -7
5 -4 10 3 6 8 10 11 10 2 0 4 -4 4 -10z m-443 -30 c1 -11 -2 -20 -5 -20 -4 0
-8 9 -9 20 -1 11 2 20 5 20 4 0 8 -9 9 -20z m286 -90 c-15 -26 -43 -42 -43
-24 0 13 36 53 48 54 10 0 9 -8 -5 -30z m33 5 c-9 -13 -16 -28 -16 -32 0 -4
10 7 21 25 31 47 52 42 27 -7 -16 -32 -23 -37 -43 -33 -14 2 -25 8 -25 14 0
14 31 58 42 58 6 0 3 -11 -6 -25z m-168 3 c-4 -15 22 -18 40 -5 7 5 26 11 42
13 l31 4 -18 -24 c-25 -34 -72 -42 -90 -16 -8 11 -18 18 -23 15 -5 -3 -12 0
-16 6 -4 7 -3 9 4 5 6 -3 13 -2 17 4 8 14 16 13 13 -2z m109 -54 c-3 -3 -12
-4 -19 -1 -8 3 -5 6 6 6 11 1 17 -2 13 -5z"/>
<path d="M1677 2223 c-4 -3 -7 -13 -7 -21 0 -18 13 -7 16 13 2 17 1 18 -9 8z"/>
<path d="M1670 2160 c-6 -11 -8 -20 -6 -20 3 0 10 9 16 20 6 11 8 20 6 20 -3
0 -10 -9 -16 -20z"/>
<path d="M2106 2292 c-4 -4 -13 -7 -19 -7 -19 0 -14 -29 5 -33 18 -3 44 33 29
42 -4 3 -11 2 -15 -2z"/>
<path d="M2210 2190 c-8 -5 -12 -12 -9 -15 4 -3 12 1 19 10 14 17 11 19 -10 5z"/>
<path d="M2002 1958 c-17 -17 -15 -55 4 -62 24 -9 45 13 42 43 -3 29 -27 38
-46 19z m37 -41 c0 -9 -2 -9 -6 1 -2 6 -9 12 -15 12 -6 0 -7 -7 -4 -16 3 -8 2
-12 -3 -9 -6 3 -9 14 -8 24 1 16 5 17 19 10 10 -5 18 -15 17 -22z"/>
<path d="M1982 1770 c0 -14 2 -19 5 -12 2 6 2 18 0 25 -3 6 -5 1 -5 -13z"/>
<path d="M2380 1525 c-14 -16 -3 -20 19 -6 8 5 9 11 3 15 -5 3 -15 -1 -22 -9z"/>
<path d="M1610 1920 c0 -5 -7 -10 -16 -10 -20 0 -13 -24 9 -28 12 -3 17 4 17
22 0 14 -2 26 -5 26 -3 0 -5 -4 -5 -10z"/>
<path d="M1630 1890 c0 -11 5 -20 10 -20 6 0 10 7 10 16 0 8 5 12 10 9 6 -3
10 -1 10 4 0 6 -9 11 -20 11 -13 0 -20 -7 -20 -20z"/>
<path d="M1558 1809 c-26 -14 -23 -65 3 -79 31 -17 68 -4 75 26 10 40 -41 75
-78 53z m27 -19 c-29 -7 -29 -8 10 -10 l40 -3 -35 -7 -35 -7 35 -2 c32 -1 33
-2 18 -17 -11 -11 -25 -14 -41 -10 -19 4 -23 11 -21 33 1 16 2 29 3 31 1 1 13
1 29 1 l27 -1 -30 -8z"/>
<path d="M1750 1775 c-7 -9 -10 -18 -7 -21 3 -3 10 4 17 15 13 25 8 27 -10 6z"/>
<path d="M1785 1669 c-4 -6 -5 -12 -2 -15 2 -3 7 2 10 11 7 17 1 20 -8 4z"/>
<path d="M2286 1648 c3 -4 11 -5 19 -1 21 7 19 12 -4 10 -11 0 -18 -5 -15 -9z"/>
<path d="M2155 1290 c-13 -6 -2 -7 30 -3 28 3 52 7 54 9 9 8 -65 2 -84 -6z"/>
<path d="M2257 1253 c6 -5 14 -35 16 -68 l4 -60 -1 64 c-1 48 -5 65 -16 68
-11 3 -11 2 -3 -4z"/>
<path d="M1901 1524 c-6 -15 -9 -29 -6 -32 3 -3 5 0 5 7 0 7 5 9 12 5 8 -5 9
-2 5 9 -3 10 -2 17 3 17 6 0 10 5 10 10 0 19 -17 10 -29 -16z"/>
<path d="M1876 1525 c-9 -26 -7 -32 5 -12 6 10 9 21 6 23 -2 3 -7 -2 -11 -11z"/>
<path d="M1881 1464 c0 -11 3 -14 6 -6 3 7 2 16 -1 19 -3 4 -6 -2 -5 -13z"/>
<path d="M1922 1455 c0 -16 2 -22 5 -12 2 9 2 23 0 30 -3 6 -5 -1 -5 -18z"/>
<path d="M1776 1455 c-9 -24 -7 -32 4 -15 9 13 10 13 10 0 1 -11 3 -11 11 3 6
10 8 21 5 24 -3 4 -6 0 -6 -8 0 -11 -2 -12 -9 -1 -7 11 -10 10 -15 -3z"/>
<path d="M1746 1433 c-6 -14 -5 -15 5 -6 7 7 10 15 7 18 -3 3 -9 -2 -12 -12z"/>
<path d="M1891 1424 c0 -11 3 -14 6 -6 3 7 2 16 -1 19 -3 4 -6 -2 -5 -13z"/>
<path d="M1720 1350 c-11 -8 -7 -9 15 -5 l30 6 -27 -16 c-38 -21 -36 -29 2
-10 17 9 28 20 25 25 -8 13 -26 12 -45 0z"/>
<path d="M1902 1348 c-15 -15 -16 -31 0 -22 8 5 9 1 5 -12 -5 -14 -2 -12 12 6
26 33 12 57 -17 28z"/>
<path d="M1940 1325 c-7 -9 -11 -17 -9 -20 3 -2 10 5 17 15 14 24 10 26 -8 5z"/>
<path d="M1960 1315 c-7 -9 -8 -15 -2 -15 5 0 12 7 16 15 3 8 4 15 2 15 -2 0
-9 -7 -16 -15z"/>
<path d="M1844 1226 c-12 -31 0 -51 30 -51 32 0 53 23 43 49 -8 20 -65 22 -73
2z m56 -11 c12 -14 6 -35 -10 -35 -5 0 -7 10 -5 23 4 20 3 21 -9 5 -17 -23
-26 -23 -26 2 0 24 32 27 50 5z"/>
<path d="M1996 1233 c-14 -15 -5 -43 14 -43 13 0 20 7 20 19 0 19 -23 35 -34
24z m24 -23 c0 -5 -4 -10 -10 -10 -5 0 -10 5 -10 10 0 6 5 10 10 10 6 0 10 -4
10 -10z"/>
<path d="M1700 1184 c0 -8 5 -12 10 -9 6 4 8 11 5 16 -9 14 -15 11 -15 -7z"/>
<path d="M2020 1080 c-9 -6 -10 -10 -3 -10 6 0 15 5 18 10 8 12 4 12 -15 0z"/>
<path d="M2009 1003 c-13 -16 -12 -17 4 -4 16 13 21 21 13 21 -2 0 -10 -8 -17
-17z"/>
<path d="M2030 940 c-34 -7 -34 -7 -5 -8 17 0 44 4 60 8 27 7 27 8 5 8 -14 -1
-41 -4 -60 -8z"/>
<path d="M1735 740 c-3 -5 -1 -10 4 -10 6 0 11 5 11 10 0 6 -2 10 -4 10 -3 0
-8 -4 -11 -10z"/>
<path d="M2230 740 c0 -5 5 -10 10 -10 6 0 10 5 10 10 0 6 -4 10 -10 10 -5 0
-10 -4 -10 -10z"/>
<path d="M1965 647 c-28 -28 -28 -29 -5 -17 20 10 23 10 13 0 -6 -7 -22 -14
-35 -15 -13 -1 -29 -3 -36 -4 -7 0 -10 -6 -6 -12 3 -6 15 -8 26 -6 18 5 19 0
17 -89 -1 -75 -5 -96 -18 -104 -11 -7 3 -9 47 -10 56 0 62 2 49 15 -9 8 -17
20 -19 26 -3 9 -9 9 -25 1 -21 -12 -26 -2 -12 23 4 6 5 18 4 27 -2 11 2 15 12
11 12 -5 12 -7 1 -14 -10 -7 -10 -9 2 -9 13 0 13 -1 0 -10 -13 -8 -13 -10 2
-10 19 0 24 20 33 148 7 93 0 100 -50 49z m23 -68 c-19 -12 -25 -11 -25 5 0 8
8 11 20 8 14 -4 16 -7 5 -13z m2 -19 c-13 -9 -13 -10 0 -10 9 0 11 -3 5 -8
-15 -10 -17 -32 -3 -32 6 0 9 -3 6 -6 -4 -3 -16 0 -29 7 -22 11 -22 12 -4 25
14 10 15 14 4 14 -12 0 -12 2 1 10 8 5 20 10 25 10 6 0 3 -5 -5 -10z"/>
<path d="M1792 500 c0 -19 2 -27 5 -17 2 9 2 25 0 35 -3 9 -5 1 -5 -18z"/>
<path d="M2195 310 c-3 -5 -1 -10 4 -10 6 0 11 5 11 10 0 6 -2 10 -4 10 -3 0
-8 -4 -11 -10z"/>
<path d="M1760 279 c0 -5 5 -7 10 -4 6 3 10 8 10 11 0 2 -4 4 -10 4 -5 0 -10
-5 -10 -11z"/>
<path d="M1926 203 c-4 -5 -13 -8 -18 -8 -6 0 -12 -6 -14 -13 -1 -7 0 -8 3 -2
2 5 8 8 13 5 4 -3 13 2 20 10 13 15 9 21 -4 8z"/>
<path d="M2405 2533 l-17 -28 23 22 c12 12 20 25 17 28 -3 3 -13 -7 -23 -22z"/>
<path d="M1088 2487 c-16 -6 -28 -14 -28 -19 0 -4 7 -5 15 -2 29 12 15 -16
-22 -42 -32 -22 -34 -25 -13 -20 14 3 39 6 55 7 17 1 22 3 13 6 -22 5 -23 17
-4 32 15 12 29 52 18 50 -4 -1 -19 -6 -34 -12z"/>
<path d="M764 2461 l-39 -15 30 -7 30 -6 -40 -18 c-22 -9 -50 -18 -62 -19 -13
0 -23 -4 -23 -8 0 -26 130 16 138 44 2 10 19 25 36 32 l31 13 -31 0 c-18 0
-49 -7 -70 -16z"/>
<path d="M2346 2445 c-9 -14 -23 -37 -32 -52 l-16 -28 20 24 c24 29 55 81 49
81 -3 0 -12 -11 -21 -25z"/>
<path d="M850 2443 c-15 -4 -45 -42 -38 -49 2 -2 17 8 33 21 31 24 32 34 5 28z"/>
<path d="M901 2437 c-35 -18 -38 -37 -6 -37 25 0 26 -2 14 -17 -12 -15 -12
-16 1 -8 39 22 71 66 38 52 -7 -3 -21 -8 -30 -12 -11 -4 -18 -3 -18 4 0 6 7
11 15 11 8 0 15 5 15 10 0 12 0 12 -29 -3z"/>
<path d="M2475 2429 c-5 -5 -20 -17 -33 -27 -22 -16 -23 -20 -13 -87 6 -38 12
-119 15 -180 l4 -110 31 -3 c21 -2 31 -9 34 -25 l4 -22 2 23 c1 25 26 30 35 6
3 -9 6 -29 6 -45 0 -35 -26 -40 -33 -6 -3 13 -5 8 -6 -16 -1 -34 0 -36 19 -25
22 14 35 6 26 -17 -4 -11 -12 -14 -26 -10 -22 7 -23 1 -10 -30 7 -16 9 -16 9
-4 1 27 29 31 35 6 3 -12 3 13 0 56 -3 43 -8 85 -11 94 -5 13 -1 15 20 11 16
-3 24 -1 20 5 -3 5 -6 35 -6 66 0 52 0 53 -5 11 l-4 -45 -19 75 c-20 82 -23
120 -11 120 5 0 6 -14 4 -31 -3 -21 -1 -30 6 -25 6 3 13 -2 15 -11 2 -10 2 4
-1 31 -3 34 -1 47 7 42 14 -9 15 46 0 97 -7 26 -19 42 -37 50 -15 6 -31 17
-35 24 -9 15 -28 16 -42 2z m31 -8 c-3 -5 8 -14 24 -20 38 -13 39 -23 3 -15
-62 13 -63 14 -50 29 13 16 31 20 23 6z m39 -82 c0 -19 5 -37 10 -41 6 -5 4
-8 -5 -8 -13 0 -13 -1 0 -10 12 -7 8 -11 -16 -16 l-31 -6 16 -64 c9 -38 20
-64 28 -64 12 0 14 -6 16 -47 1 -10 5 -21 10 -24 21 -15 -8 -29 -59 -29 -45 0
-54 3 -54 18 -2 60 -20 283 -25 305 -6 21 -4 27 10 27 9 0 14 4 11 8 -3 5 16
3 42 -3 44 -12 47 -14 47 -46z m42 -28 c4 -27 2 -41 -6 -41 -6 0 -11 15 -11
34 0 19 -3 43 -6 53 -5 14 -4 15 5 7 7 -6 15 -30 18 -53z m-60 -93 c-3 -8 -6
-5 -6 6 -1 11 2 17 5 13 3 -3 4 -12 1 -19z m18 -38 c3 -5 1 -10 -4 -10 -6 0
-11 5 -11 10 0 6 2 10 4 10 3 0 8 -4 11 -10z"/>
<path d="M2478 2043 c7 -3 16 -2 19 1 4 3 -2 6 -13 5 -11 0 -14 -3 -6 -6z"/>
<path d="M980 2409 c0 -5 5 -7 10 -4 6 3 10 8 10 11 0 2 -4 4 -10 4 -5 0 -10
-5 -10 -11z"/>
<path d="M2802 2404 c-20 -9 -30 -19 -26 -26 4 -7 3 -8 -4 -4 -6 3 -16 -3 -22
-14 -11 -20 -10 -21 9 -11 11 6 29 11 40 11 11 0 23 5 27 11 4 8 -1 9 -17 4
-19 -5 -17 -2 9 15 49 33 42 39 -16 14z"/>
<path d="M575 2390 c-9 -14 3 -30 23 -29 11 0 13 2 4 6 -10 4 -10 8 -1 19 9
11 8 14 -4 14 -9 0 -19 -4 -22 -10z"/>
<path d="M870 2360 c-8 -4 -27 -13 -42 -19 -16 -6 -28 -15 -28 -21 0 -6 13 -4
32 6 31 16 37 16 162 -1 27 -4 26 -3 -9 9 -22 8 -52 15 -67 15 -14 1 -28 5
-30 10 -1 5 -10 5 -18 1z"/>
<path d="M2680 2331 c-25 -21 -42 -42 -39 -45 3 -3 25 15 49 39 54 55 50 58
-10 6z"/>
<path d="M1269 2324 c-22 -8 -27 -13 -15 -13 18 -1 18 -3 -5 -28 l-24 -28 30
26 c17 14 39 32 49 40 18 13 19 12 13 -4 -6 -15 -3 -17 15 -11 20 6 21 5 9
-10 -7 -9 -22 -16 -32 -16 -11 0 -19 -4 -19 -10 0 -15 9 -13 48 12 33 20 34
22 16 36 -17 13 -15 14 21 10 22 -3 49 -8 60 -12 13 -5 11 -2 -5 8 -29 18
-111 18 -161 0z"/>
<path d="M1390 2250 c6 -11 13 -20 16 -20 2 0 0 9 -6 20 -6 11 -13 20 -16 20
-2 0 0 -9 6 -20z"/>
<path d="M3550 2170 l-25 -19 33 4 c38 5 52 12 52 27 0 7 -5 7 -14 -1 -9 -7
-15 -8 -18 -2 -1 6 -14 1 -28 -9z"/>
<path d="M1430 2175 c0 -5 5 -17 10 -25 5 -8 10 -10 10 -5 0 6 -5 17 -10 25
-5 8 -10 11 -10 5z"/>
<path d="M3695 2170 c-3 -5 -1 -10 4 -10 6 0 11 5 11 10 0 6 -2 10 -4 10 -3 0
-8 -4 -11 -10z"/>
<path d="M3628 2163 c7 -3 16 -2 19 1 4 3 -2 6 -13 5 -11 0 -14 -3 -6 -6z"/>
<path d="M3438 2088 c-37 -37 -60 -64 -50 -59 23 13 127 119 121 124 -2 2 -34
-27 -71 -65z"/>
<path d="M944 2102 l-31 -37 26 2 c41 2 91 15 97 25 3 5 -5 6 -18 4 -42 -10
-78 -15 -78 -11 0 6 58 36 66 34 3 0 9 3 12 7 4 4 -6 4 -21 0 -19 -4 -26 -3
-22 4 13 21 -1 9 -31 -28z"/>
<path d="M3246 2123 c-3 -10 -3 -42 -2 -71 3 -47 1 -55 -18 -62 -20 -8 -20 -9
-1 -9 17 -1 20 -8 21 -43 0 -24 4 -60 8 -81 4 -22 4 -37 -1 -34 -4 3 -14 -2
-22 -10 -12 -13 -11 -14 5 -9 31 9 28 -32 -3 -58 -31 -27 -26 -51 12 -66 59
-23 135 -6 135 29 0 19 -30 51 -48 51 -6 0 -13 15 -15 33 -2 17 -3 8 -2 -20 1
-48 0 -53 -19 -52 -12 0 -16 3 -10 5 12 5 7 44 -6 44 -4 0 -8 21 -9 46 0 26
-4 50 -7 56 -3 5 0 16 8 25 9 12 9 15 1 9 -10 -5 -13 13 -15 78 -1 47 -2 98
-2 113 -2 49 23 37 27 -14 l4 -48 -1 50 c-1 38 -5 51 -18 53 -9 2 -19 -5 -22
-15z m118 -395 c19 -30 -11 -51 -67 -45 -55 5 -89 29 -69 49 9 9 15 8 25 -6
18 -25 83 -19 79 8 -4 21 17 18 32 -6z"/>
<path d="M852 2073 c-35 -25 -61 -47 -58 -50 4 -4 126 86 126 94 0 5 -3 3 -68
-44z"/>
<path d="M2235 2100 c-3 -6 1 -7 9 -4 18 7 21 14 7 14 -6 0 -13 -4 -16 -10z"/>
<path d="M717 2068 c-2 -7 -3 -27 -1 -45 3 -28 0 -32 -24 -36 -25 -4 -25 -4 6
-6 21 -1 32 -6 32 -16 0 -12 -13 -15 -62 -15 -78 1 -117 -3 -112 -12 2 -3 41
-4 87 -2 55 2 74 1 57 -5 -24 -9 -24 -9 7 -10 17 -1 34 -7 36 -13 6 -16 1 42
-8 97 -4 22 -8 45 -8 50 -1 6 5 10 13 10 10 0 18 -16 24 -47 5 -27 14 -48 19
-48 5 0 7 6 4 14 -3 8 -11 33 -17 55 -8 29 -16 41 -29 41 -11 0 -21 -6 -24
-12z"/>
<path d="M1471 2075 c0 -5 9 -28 20 -50 10 -22 16 -29 13 -15 -7 28 -33 80
-33 65z"/>
<path d="M3296 1930 c4 -47 9 -87 12 -90 2 -3 2 28 -1 68 l-6 72 67 2 67 2
-65 3 c-35 2 -68 9 -73 16 -4 7 -5 -26 -1 -73z"/>
<path d="M570 1990 l-65 -7 73 -1 c47 -1 71 2 67 8 -3 6 -7 9 -8 8 -1 -1 -31
-4 -67 -8z"/>
<path d="M3088 1979 c21 -6 39 -6 50 0 13 8 5 10 -33 10 -48 -1 -49 -1 -17
-10z"/>
<path d="M458 1973 c6 -2 18 -2 25 0 6 3 1 5 -13 5 -14 0 -19 -2 -12 -5z"/>
<path d="M818 1973 c12 -2 30 -2 40 0 9 3 -1 5 -23 4 -22 0 -30 -2 -17 -4z"/>
<path d="M3018 1973 c6 -2 18 -2 25 0 6 3 1 5 -13 5 -14 0 -19 -2 -12 -5z"/>
<path d="M3453 1973 c9 -2 23 -2 30 0 6 3 -1 5 -18 5 -16 0 -22 -2 -12 -5z"/>
<path d="M408 1963 c6 -2 18 -2 25 0 6 3 1 5 -13 5 -14 0 -19 -2 -12 -5z"/>
<path d="M688 1963 c6 -2 18 -2 25 0 6 3 1 5 -13 5 -14 0 -19 -2 -12 -5z"/>
<path d="M903 1963 c9 -2 25 -2 35 0 9 3 1 5 -18 5 -19 0 -27 -2 -17 -5z"/>
<path d="M2945 1960 c-27 -7 -28 -8 -5 -8 14 0 34 3 45 8 25 11 2 11 -40 0z"/>
<path d="M3528 1963 c17 -2 47 -2 65 0 17 2 3 4 -33 4 -36 0 -50 -2 -32 -4z"/>
<path d="M780 1903 l5 -58 3 52 c3 44 6 52 25 56 17 3 15 5 -8 6 l-30 1 5 -57z"/>
<path d="M1020 1945 c36 -8 72 -14 80 -13 27 1 -84 26 -115 26 -16 0 -1 -6 35
-13z"/>
<path d="M3030 1950 c-8 -5 -10 -10 -5 -10 6 0 17 5 25 10 8 5 11 10 5 10 -5
0 -17 -5 -25 -10z"/>
<path d="M3128 1953 c6 -2 18 -2 25 0 6 3 1 5 -13 5 -14 0 -19 -2 -12 -5z"/>
<path d="M3631 1956 c2 -2 18 -6 34 -10 22 -5 26 -4 15 4 -14 9 -59 15 -49 6z"/>
<path d="M518 1943 c7 -3 16 -2 19 1 4 3 -2 6 -13 5 -11 0 -14 -3 -6 -6z"/>
<path d="M3188 1943 c6 -2 18 -2 25 0 6 3 1 5 -13 5 -14 0 -19 -2 -12 -5z"/>
<path d="M3043 1930 c-34 -14 -28 -21 7 -9 17 6 30 13 30 15 0 6 -12 4 -37 -6z"/>
<path d="M3130 1930 c-18 -12 -2 -12 25 0 13 6 15 9 5 9 -8 0 -22 -4 -30 -9z"/>
<path d="M3700 1936 c0 -3 12 -12 28 -20 49 -25 120 -95 141 -139 25 -51 27
-116 6 -158 -9 -16 -40 -45 -70 -64 -53 -35 -97 -49 -59 -20 17 13 15 14 -16
1 -63 -24 -65 -26 -30 -20 27 4 32 3 20 -6 -12 -9 -10 -10 10 -4 36 10 104 51
134 81 l26 26 0 -47 c0 -25 -4 -46 -10 -46 -5 0 -10 5 -10 10 0 20 -38 10 -44
-12 -12 -45 -7 -97 11 -106 28 -16 -21 -39 -132 -61 -161 -32 -237 -41 -347
-40 -94 0 -125 3 -228 24 -19 3 3 -7 50 -24 91 -33 103 -36 80 -21 -10 7 20
10 93 10 115 0 192 9 351 41 115 23 123 27 163 73 17 19 39 36 49 39 15 4 13
5 -6 7 l-25 2 25 8 c24 8 24 8 3 9 -34 1 -29 31 5 32 23 2 24 2 5 6 -20 4 -23
11 -24 51 -1 26 0 52 1 57 8 31 -1 119 -15 149 -19 39 -110 128 -156 152 -16
8 -29 12 -29 10z m164 -433 c3 -10 9 -25 12 -33 5 -13 4 -13 -5 0 -9 12 -11
11 -11 -7 0 -12 -4 -25 -10 -28 -6 -4 -10 12 -10 39 0 46 12 61 24 29z m2 -81
c-18 -16 -18 -16 -6 6 6 13 14 21 18 18 3 -4 -2 -14 -12 -24z"/>
<path d="M1128 1923 c6 -2 18 -2 25 0 6 3 1 5 -13 5 -14 0 -19 -2 -12 -5z"/>
<path d="M2783 1892 c-62 -50 -66 -55 -92 -126 -24 -64 -30 -119 -18 -153 6
-16 4 -22 -10 -26 -14 -4 -13 -5 5 -6 16 -1 22 -7 22 -25 0 -15 -7 -26 -17
-29 -17 -4 -17 -5 0 -6 9 0 17 -5 17 -10 0 -5 -8 -12 -17 -14 -17 -4 -17 -5 0
-6 20 -1 23 -17 5 -24 -8 -4 -7 -6 3 -6 23 -1 32 -51 10 -52 -11 0 -8 -3 7 -9
32 -13 27 -28 -10 -33 l-33 -4 35 0 c25 1 44 -7 64 -26 16 -15 36 -25 43 -23
18 7 12 -17 -7 -26 -10 -5 -7 -7 10 -7 14 1 36 -2 49 -7 23 -7 24 -8 5 -16
-14 -6 -12 -7 9 -3 15 3 37 0 50 -7 21 -12 20 -13 -18 -19 -37 -6 -35 -7 15
-6 51 1 206 -43 220 -62 3 -4 20 -13 38 -21 24 -9 30 -15 20 -21 -8 -6 4 -9
32 -9 35 0 42 -3 30 -11 -12 -8 -9 -9 12 -5 19 4 30 1 37 -11 6 -10 11 -14 11
-9 0 5 7 3 15 -4 13 -11 13 -15 3 -23 -10 -7 -9 -8 3 -4 10 3 30 -8 52 -29 21
-21 38 -30 42 -24 3 6 11 7 17 4 7 -5 8 -2 3 7 -15 26 -40 51 -60 61 -15 7
-14 5 4 -10 13 -10 22 -24 20 -31 -3 -7 -25 7 -54 33 -27 25 -65 51 -85 57
-19 6 -61 24 -92 40 -31 15 -91 40 -133 54 -80 28 -205 84 -205 92 0 2 5 1 12
-3 7 -5 8 -3 4 5 -5 7 -15 10 -23 7 -8 -3 -12 -2 -9 3 3 4 -12 16 -34 26 -22
10 -40 22 -40 27 0 4 22 -3 50 -17 77 -39 73 -29 -4 13 -39 20 -72 43 -74 50
-2 8 20 0 54 -18 62 -32 53 -25 -23 23 -25 15 -43 30 -40 33 3 3 18 -3 33 -13
16 -10 25 -12 21 -5 -11 17 5 15 29 -4 16 -13 16 -15 2 -10 -25 7 -22 -1 3
-15 15 -8 19 -8 15 0 -4 6 -1 11 6 11 7 0 0 9 -17 20 -16 11 -24 20 -17 20 8
0 -1 12 -18 26 -53 45 -24 39 44 -10 35 -25 67 -46 70 -46 3 0 34 -13 68 -29
83 -38 128 -55 132 -50 2 2 1 30 -2 62 -3 45 -7 55 -17 47 -9 -7 -10 -21 -5
-45 9 -39 3 -47 -28 -38 -19 4 -22 13 -24 57 l-2 51 -3 -47 c-3 -36 -7 -46
-19 -41 -7 3 -14 16 -14 29 0 13 -9 33 -21 45 -16 16 -23 18 -35 8 -9 -7 -12
-20 -9 -33 5 -17 4 -18 -4 -6 -6 8 -11 11 -11 7 0 -4 -9 -3 -20 3 -13 7 -21
22 -21 43 -2 31 -2 31 -6 4 -4 -23 -7 -26 -19 -16 -8 6 -14 20 -14 30 0 22
-17 34 -23 17 -6 -18 -23 0 -31 32 -3 14 -3 19 0 12 3 -6 10 -10 15 -6 5 3 9
-1 9 -8 0 -9 3 -9 10 2 8 11 12 12 18 3 4 -7 13 -9 20 -4 8 5 -1 12 -28 20
-22 6 -39 15 -36 19 2 4 -13 17 -33 30 l-36 23 28 -26 c15 -14 24 -25 19 -25
-5 0 -21 11 -36 25 -65 60 0 224 119 297 16 10 25 18 18 18 -6 0 -33 -17 -60
-38z m-48 -373 c-2 -9 7 -27 21 -40 18 -17 21 -25 12 -31 -17 -10 -20 -10 -42
7 -15 11 -20 29 -22 72 -2 57 -2 57 16 33 10 -13 17 -32 15 -41z m206 -72 c-1
-4 -1 -14 -1 -22 0 -8 -4 -15 -10 -15 -5 0 -10 12 -10 26 0 14 5 24 11 22 6
-2 10 -7 10 -11z m16 -39 c-3 -8 -6 -5 -6 6 -1 11 2 17 5 13 3 -3 4 -12 1 -19z
m465 -410 c-7 -7 -12 -8 -12 -2 0 14 12 26 19 19 2 -3 -1 -11 -7 -17z"/>
<path d="M2714 1536 c1 -8 5 -18 8 -22 4 -3 5 1 4 10 -1 8 -5 18 -8 22 -4 3
-5 -1 -4 -10z"/>
<path d="M2710 1486 c0 -2 12 -12 28 -21 l27 -18 -19 21 c-17 20 -36 29 -36
18z"/>
<path d="M3074 1904 c-18 -14 -18 -14 6 -3 31 14 36 19 24 19 -6 0 -19 -7 -30
-16z"/>
<path d="M3185 1910 c-13 -5 -14 -9 -5 -9 8 0 24 4 35 9 13 5 14 9 5 9 -8 0
-24 -4 -35 -9z"/>
<path d="M3678 1903 c7 -3 16 -2 19 1 4 3 -2 6 -13 5 -11 0 -14 -3 -6 -6z"/>
<path d="M1156 1890 c44 -10 97 -44 133 -86 17 -19 31 -31 31 -26 0 14 -83 88
-118 106 -17 9 -41 16 -54 15 -18 -1 -16 -3 8 -9z"/>
<path d="M3130 1890 c-8 -5 -10 -10 -5 -10 6 0 17 5 25 10 8 5 11 10 5 10 -5
0 -17 -5 -25 -10z"/>
<path d="M3645 1890 c27 -12 43 -12 25 0 -8 5 -22 9 -30 9 -10 0 -8 -3 5 -9z"/>
<path d="M3710 1896 c0 -2 7 -7 16 -10 8 -3 12 -2 9 4 -6 10 -25 14 -25 6z"/>
<path d="M741 1878 c-1 -9 -7 -19 -13 -21 -10 -4 -10 -6 0 -6 8 -1 12 -18 12
-51 0 -43 -3 -50 -20 -50 -29 0 -27 -38 3 -45 42 -9 52 -9 80 -2 29 8 36 31
13 44 -8 4 -16 24 -19 43 -3 28 -4 26 -3 -10 0 -36 -3 -46 -18 -48 -13 -3 -17
0 -13 10 3 8 1 21 -3 29 -6 8 -4 16 3 21 9 6 9 8 0 8 -6 0 -10 10 -9 23 1 12
-1 33 -5 47 -4 14 -7 18 -8 8z m33 -156 c17 -3 23 -7 16 -12 -17 -10 -73 3
-78 19 -4 11 0 12 14 6 11 -4 32 -10 48 -13z"/>
<path d="M1058 1883 c7 -3 16 -2 19 1 4 3 -2 6 -13 5 -11 0 -14 -3 -6 -6z"/>
<path d="M3190 1880 c-8 -5 -10 -10 -5 -10 6 0 17 5 25 10 8 5 11 10 5 10 -5
0 -17 -5 -25 -10z"/>
<path d="M678 1873 c7 -3 16 -2 19 1 4 3 -2 6 -13 5 -11 0 -14 -3 -6 -6z"/>
<path d="M3090 1870 c-9 -6 -10 -10 -3 -10 6 0 15 5 18 10 8 12 4 12 -15 0z"/>
<path d="M3635 1860 c45 -23 80 -52 113 -94 12 -16 22 -25 22 -20 -1 27 -127
134 -158 134 -9 0 1 -9 23 -20z"/>
<path d="M3695 1873 c26 -24 88 -65 73 -47 -9 10 -32 28 -50 38 -18 10 -28 15
-23 9z"/>
<path d="M3770 1855 c13 -14 26 -25 28 -25 3 0 -5 11 -18 25 -13 14 -26 25
-28 25 -3 0 5 -11 18 -25z"/>
<path d="M1008 1863 c12 -2 30 -2 40 0 9 3 -1 5 -23 4 -22 0 -30 -2 -17 -4z"/>
<path d="M3134 1854 c-18 -14 -18 -14 6 -3 31 14 36 19 24 19 -6 0 -19 -7 -30
-16z"/>
<path d="M1100 1844 c19 -8 50 -27 69 -41 19 -15 31 -21 27 -14 -12 19 -97 71
-115 71 -9 -1 0 -8 19 -16z"/>
<path d="M3168 1844 c-39 -21 -35 -28 5 -8 37 19 44 24 31 24 -5 -1 -21 -8
-36 -16z"/>
<path d="M3568 1853 c7 -3 16 -2 19 1 4 3 -2 6 -13 5 -11 0 -14 -3 -6 -6z"/>
<path d="M678 1843 c7 -3 16 -2 19 1 4 3 -2 6 -13 5 -11 0 -14 -3 -6 -6z"/>
<path d="M958 1843 c6 -2 18 -2 25 0 6 3 1 5 -13 5 -14 0 -19 -2 -12 -5z"/>
<path d="M3637 1821 c22 -16 50 -41 61 -56 12 -15 22 -23 22 -18 0 18 -95 103
-115 103 -4 0 10 -13 32 -29z"/>
<path d="M1040 1819 c25 -11 58 -32 75 -47 l30 -27 -25 28 c-26 30 -89 67
-112 67 -7 0 7 -10 32 -21z"/>
<path d="M3190 1825 c-14 -8 -20 -14 -15 -14 6 0 21 6 35 14 14 8 21 14 15 14
-5 0 -21 -6 -35 -14z"/>
<path d="M3555 1828 c11 -6 39 -24 63 -40 23 -16 42 -27 42 -24 0 8 -103 76
-115 76 -5 0 -1 -6 10 -12z"/>
<path d="M698 1823 c6 -2 18 -2 25 0 6 3 1 5 -13 5 -14 0 -19 -2 -12 -5z"/>
<path d="M1236 1788 c21 -25 41 -44 44 -42 2 3 -16 24 -40 47 l-43 42 39 -47z"/>
<path d="M2541 1814 c0 -11 3 -14 6 -6 3 7 2 16 -1 19 -3 4 -6 -2 -5 -13z"/>
<path d="M2581 1814 c0 -11 3 -14 6 -6 3 7 2 16 -1 19 -3 4 -6 -2 -5 -13z"/>
<path d="M3515 1813 c17 -8 43 -27 60 -42 l30 -26 -25 28 c-24 28 -70 57 -87
57 -4 -1 6 -8 22 -17z"/>
<path d="M975 1810 c27 -12 43 -12 25 0 -8 5 -22 9 -30 9 -10 0 -8 -3 5 -9z"/>
<path d="M908 1803 c7 -3 16 -2 19 1 4 3 -2 6 -13 5 -11 0 -14 -3 -6 -6z"/>
<path d="M3467 1799 c18 -5 39 -19 48 -31 8 -13 15 -17 15 -11 0 18 -50 53
-74 52 -15 -1 -12 -4 11 -10z"/>
<path d="M941 1798 c2 -2 20 -16 39 -33 l35 -30 -29 33 c-17 17 -34 32 -40 32
-5 0 -7 -1 -5 -2z"/>
<path d="M1039 1776 c29 -31 35 -33 22 -7 -6 10 -18 22 -28 25 -13 5 -11 1 6
-18z"/>
<path d="M868 1783 c-10 -2 -18 -8 -18 -11 1 -12 30 -47 30 -36 0 6 -5 15 -12
22 -19 19 3 14 26 -5 21 -18 21 -18 2 5 -19 22 -19 22 2 22 11 0 35 -12 54
-26 l33 -26 -33 31 c-31 30 -46 34 -84 24z"/>
<path d="M2552 1765 c0 -16 2 -22 5 -12 2 9 2 23 0 30 -3 6 -5 -1 -5 -18z"/>
<path d="M3421 1787 c2 -2 18 -11 34 -21 l30 -17 -24 20 c-13 12 -28 21 -34
21 -6 0 -8 -1 -6 -3z"/>
<path d="M3826 1777 c3 -10 9 -15 12 -12 3 3 0 11 -7 18 -10 9 -11 8 -5 -6z"/>
<path d="M3410 1758 c25 -24 38 -29 25 -9 -3 6 -16 16 -28 22 -20 11 -20 9 3
-13z"/>
<path d="M351 1733 c-2 -46 60 -107 130 -127 29 -9 54 -14 56 -12 3 2 -19 11
-49 20 -63 18 -124 75 -131 121 l-4 30 -2 -32z"/>
<path d="M511 1747 c-1 -17 25 -77 33 -77 2 0 20 -7 40 -15 21 -9 36 -11 36
-5 0 5 -8 10 -19 10 -28 0 -70 38 -80 73 -5 18 -10 24 -10 14z"/>
<path d="M622 1747 c-13 -15 -5 -30 25 -46 37 -19 40 -12 5 9 -28 17 -32 23
-22 35 7 8 10 15 7 15 -2 0 -9 -6 -15 -13z"/>
<path d="M2891 1752 c-2 -40 59 -122 92 -122 5 0 -5 10 -24 23 -21 14 -40 39
-51 67 -9 25 -17 39 -17 32z"/>
<path d="M437 1743 c-16 -15 -5 -43 26 -63 l32 -22 -29 27 c-19 17 -26 32 -23
45 5 21 4 24 -6 13z"/>
<path d="M2956 1725 c7 -42 53 -85 95 -90 l34 -5 -33 20 c-17 11 -32 21 -32
22 0 2 -7 21 -15 43 -8 23 -14 31 -15 20 0 -11 9 -35 20 -52 11 -18 16 -33 12
-33 -14 0 -49 43 -61 75 l-11 30 6 -30z"/>
<path d="M3091 1724 c0 -20 6 -37 17 -45 15 -12 15 -12 5 1 -6 8 -13 29 -16
45 l-4 30 -2 -31z"/>
<path d="M3137 1743 c-13 -12 -7 -40 11 -54 15 -13 16 -12 3 3 -7 10 -11 27
-8 38 5 21 4 24 -6 13z"/>
<path d="M295 1713 c5 -40 30 -80 59 -95 14 -8 10 -1 -11 20 -17 17 -36 48
-42 69 -10 34 -10 35 -6 6z"/>
<path d="M570 1727 c0 -7 15 -21 33 -31 l32 -17 -28 21 c-15 12 -25 26 -21 31
3 5 0 9 -5 9 -6 0 -11 -6 -11 -13z"/>
<path d="M3041 1725 c-1 -24 25 -65 41 -65 7 0 4 6 -5 13 -10 6 -21 26 -26 42
-7 21 -10 24 -10 10z"/>
<path d="M3805 1730 c-3 -5 -1 -10 4 -10 6 0 11 5 11 10 0 6 -2 10 -4 10 -3 0
-8 -4 -11 -10z"/>
<path d="M2770 1727 c-1 -25 51 -92 85 -109 11 -5 5 2 -13 17 -18 15 -41 43
-52 63 -10 21 -19 33 -20 29z"/>
<path d="M2842 1689 c13 -23 34 -49 48 -57 24 -15 24 -14 -2 9 -14 13 -34 39
-42 57 -9 17 -19 32 -22 32 -3 0 5 -19 18 -41z"/>
<path d="M3845 1720 c-3 -5 -1 -10 4 -10 6 0 11 5 11 10 0 6 -2 10 -4 10 -3 0
-8 -4 -11 -10z"/>
<path d="M1463 1650 c0 -30 2 -43 4 -27 2 15 2 39 0 55 -2 15 -4 2 -4 -28z"/>
<path d="M272 1658 c14 -18 31 -34 39 -37 8 -2 0 12 -16 32 -37 44 -57 49 -23
5z"/>
<path d="M2720 1682 c0 -23 103 -102 116 -89 3 2 -9 10 -26 17 -16 7 -44 28
-60 47 -17 18 -30 30 -30 25z"/>
<path d="M3370 1655 c-14 -8 -20 -14 -14 -15 5 0 19 7 30 15 24 18 16 19 -16
0z"/>
<path d="M504 1651 c7 -11 46 -35 46 -28 0 3 -12 12 -26 22 -15 9 -23 12 -20
6z"/>
<path d="M3400 1635 c-14 -8 -20 -14 -14 -15 5 0 19 7 30 15 24 18 16 19 -16
0z"/>
<path d="M897 1634 c-3 -4 -21 -10 -39 -14 -29 -7 -30 -8 -7 -9 14 -1 34 6 45
14 10 8 16 15 13 15 -3 0 -8 -3 -12 -6z"/>
<path d="M3315 1630 c-3 -6 1 -7 9 -4 18 7 21 14 7 14 -6 0 -13 -4 -16 -10z"/>
<path d="M3410 1609 c-19 -11 -28 -19 -20 -19 8 0 29 9 45 20 37 25 22 24 -25
-1z"/>
<path d="M3348 1613 c7 -3 16 -2 19 1 4 3 -2 6 -13 5 -11 0 -14 -3 -6 -6z"/>
<path d="M237 1575 c7 -49 13 -58 13 -19 0 16 -5 36 -10 44 -6 10 -7 2 -3 -25z"/>
<path d="M1563 1575 c0 -22 2 -30 4 -17 2 12 2 30 0 40 -3 9 -5 -1 -4 -23z"/>
<path d="M3435 1589 c-27 -10 -41 -18 -30 -18 11 0 38 8 60 18 50 24 36 24
-30 0z"/>
<path d="M908 1593 c7 -3 16 -2 19 1 4 3 -2 6 -13 5 -11 0 -14 -3 -6 -6z"/>
<path d="M1493 1560 c0 -25 2 -35 4 -22 2 12 2 32 0 45 -2 12 -4 2 -4 -23z"/>
<path d="M3525 1574 c-33 -14 -48 -22 -34 -20 31 7 99 34 99 41 0 6 6 8 -65
-21z"/>
<path d="M848 1583 c7 -3 16 -2 19 1 4 3 -2 6 -13 5 -11 0 -14 -3 -6 -6z"/>
<path d="M956 1583 c-4 -4 -28 -10 -54 -14 l-47 -6 41 -2 c22 0 49 6 60 14 10
8 16 15 13 15 -3 0 -9 -3 -13 -7z"/>
<path d="M3333 1583 c9 -2 23 -2 30 0 6 3 -1 5 -18 5 -16 0 -22 -2 -12 -5z"/>
<path d="M450 1570 c8 -5 20 -10 25 -10 6 0 3 5 -5 10 -8 5 -19 10 -25 10 -5
0 -3 -5 5 -10z"/>
<path d="M1125 1559 c-22 -10 -35 -19 -29 -19 15 0 84 29 84 35 0 8 -13 4 -55
-16z"/>
<path d="M279 1565 c-3 -2 -3 -21 -1 -42 4 -31 6 -34 13 -18 16 40 8 80 -12
60z"/>
<path d="M1025 1560 c-13 -6 -15 -9 -5 -9 8 0 22 4 30 9 18 12 2 12 -25 0z"/>
<path d="M3328 1563 c6 -2 18 -2 25 0 6 3 1 5 -13 5 -14 0 -19 -2 -12 -5z"/>
<path d="M3630 1554 l-45 -14 39 5 c22 2 44 9 50 15 5 5 8 9 6 9 -3 -1 -25 -8
-50 -15z"/>
<path d="M978 1543 c7 -3 16 -2 19 1 4 3 -2 6 -13 5 -11 0 -14 -3 -6 -6z"/>
<path d="M2850 1546 c0 -2 28 -13 63 -24 75 -25 219 -46 267 -40 29 4 27 5
-15 7 -74 2 -217 27 -260 45 -37 16 -55 20 -55 12z"/>
<path d="M3418 1543 c6 -2 18 -2 25 0 6 3 1 5 -13 5 -14 0 -19 -2 -12 -5z"/>
<path d="M352 1520 c0 -14 2 -19 5 -12 2 6 2 18 0 25 -3 6 -5 1 -5 -13z"/>
<path d="M878 1533 c18 -2 45 -2 60 0 15 2 0 4 -33 4 -33 0 -45 -2 -27 -4z"/>
<path d="M1058 1533 c7 -3 16 -2 19 1 4 3 -2 6 -13 5 -11 0 -14 -3 -6 -6z"/>
<path d="M3543 1533 c9 -2 23 -2 30 0 6 3 -1 5 -18 5 -16 0 -22 -2 -12 -5z"/>
<path d="M1018 1523 c7 -3 16 -2 19 1 4 3 -2 6 -13 5 -11 0 -14 -3 -6 -6z"/>
<path d="M1150 1515 c-19 -7 -28 -14 -20 -14 8 0 29 6 45 14 39 17 21 18 -25
0z"/>
<path d="M3463 1523 c9 -2 23 -2 30 0 6 3 -1 5 -18 5 -16 0 -22 -2 -12 -5z"/>
<path d="M968 1513 c7 -3 16 -2 19 1 4 3 -2 6 -13 5 -11 0 -14 -3 -6 -6z"/>
<path d="M3358 1513 c6 -2 18 -2 25 0 6 3 1 5 -13 5 -14 0 -19 -2 -12 -5z"/>
<path d="M294 1486 c-9 -19 -8 -25 7 -35 24 -15 34 -14 21 2 -5 6 -12 22 -14
34 l-3 23 -11 -24z"/>
<path d="M394 1499 c-3 -6 -6 -29 -6 -52 1 -43 20 -67 53 -67 19 0 45 27 35
37 -3 3 -6 1 -6 -6 0 -7 -4 -10 -9 -7 -5 4 -12 0 -15 -6 -3 -9 -11 -6 -25 11
-23 25 -26 48 -11 71 9 13 11 13 20 0 5 -8 10 -26 11 -40 l2 -25 5 25 c4 23 5
24 13 5 7 -18 8 -18 8 -2 1 19 -41 67 -58 67 -5 0 -13 -5 -17 -11z"/>
<path d="M488 1503 c7 -3 16 -2 19 1 4 3 -2 6 -13 5 -11 0 -14 -3 -6 -6z"/>
<path d="M843 1503 c20 -2 54 -2 75 0 20 2 3 4 -38 4 -41 0 -58 -2 -37 -4z"/>
<path d="M3550 1500 c-47 -3 -76 -8 -65 -10 11 -2 -23 -7 -75 -11 -78 -5 -72
-6 30 -2 122 5 280 18 250 22 -8 1 -24 3 -35 4 -11 2 -58 1 -105 -3z"/>
<path d="M3783 1440 c0 -36 2 -50 4 -32 2 17 2 47 0 65 -2 17 -4 3 -4 -33z"/>
<path d="M363 1450 c0 -25 2 -35 4 -22 2 12 2 32 0 45 -2 12 -4 2 -4 -23z"/>
<path d="M570 1480 c14 -4 36 -8 50 -8 22 0 22 1 -5 8 -16 4 -39 8 -50 8 -16
0 -15 -2 5 -8z"/>
<path d="M1048 1483 c6 -2 18 -2 25 0 6 3 1 5 -13 5 -14 0 -19 -2 -12 -5z"/>
<path d="M1115 1474 l-50 -14 44 5 c24 3 51 10 60 15 21 12 7 11 -54 -6z"/>
<path d="M3243 1483 c9 -2 25 -2 35 0 9 3 1 5 -18 5 -19 0 -27 -2 -17 -5z"/>
<path d="M498 1438 c5 -71 10 -77 11 -15 0 31 -2 57 -7 57 -4 0 -6 -19 -4 -42z"/>
<path d="M993 1473 c9 -2 23 -2 30 0 6 3 -1 5 -18 5 -16 0 -22 -2 -12 -5z"/>
<path d="M3704 1469 c-7 -12 -10 -99 -3 -100 13 -2 38 15 33 22 -3 5 -8 7 -12
5 -4 -2 -7 9 -7 25 0 16 3 29 6 29 3 0 6 7 6 15 0 18 -13 20 -23 4z"/>
<path d="M678 1463 c12 -2 32 -2 45 0 12 2 2 4 -23 4 -25 0 -35 -2 -22 -4z"/>
<path d="M1215 1460 c-13 -6 -15 -9 -5 -9 8 0 22 4 30 9 18 12 2 12 -25 0z"/>
<path d="M3192 1458 c-15 -19 -25 -64 -18 -86 8 -24 52 -34 67 -16 17 21 7 85
-17 101 -17 11 -23 11 -32 1z m32 -21 c16 -16 9 -77 -9 -77 -18 0 -28 35 -21
66 7 27 12 29 30 11z"/>
<path d="M3643 1415 c0 -33 2 -45 4 -27 2 18 2 45 0 60 -2 15 -4 0 -4 -33z"/>
<path d="M56 1451 c-3 -4 6 -6 19 -3 14 2 25 6 25 8 0 8 -39 4 -44 -5z"/>
<path d="M1023 1453 c9 -2 23 -2 30 0 6 3 -1 5 -18 5 -16 0 -22 -2 -12 -5z"/>
<path d="M3528 1450 c-12 -7 -15 -21 -12 -52 3 -37 2 -39 -5 -13 -8 29 -9 29
-10 5 -2 -49 43 -66 79 -30 11 11 20 30 19 43 -1 21 -1 21 -9 -3 -5 -15 -8
-18 -9 -8 -1 9 -4 24 -8 34 -4 12 -3 15 5 10 7 -4 12 -3 12 2 0 9 -23 22 -38
22 -4 0 -14 -5 -24 -10z m37 -30 c8 -37 -2 -70 -21 -70 -15 0 -19 37 -8 78 9
31 21 28 29 -8z"/>
<path d="M611 1434 c0 -11 3 -14 6 -6 3 7 2 16 -1 19 -3 4 -6 -2 -5 -13z"/>
<path d="M2575 1440 c-3 -6 1 -7 9 -4 18 7 21 14 7 14 -6 0 -13 -4 -16 -10z"/>
<path d="M3133 1405 c0 -27 2 -38 4 -22 2 15 2 37 0 50 -2 12 -4 0 -4 -28z"/>
<path d="M3304 1437 c-3 -8 -1 -36 4 -63 l10 -49 1 63 c1 60 -4 77 -15 49z"/>
<path d="M3374 1444 c-8 -3 -10 -20 -7 -44 4 -25 1 -46 -7 -55 -10 -13 -9 -15
8 -15 18 0 20 6 18 60 0 33 -1 60 -1 59 0 0 -5 -3 -11 -5z"/>
<path d="M3446 1393 c7 -57 10 -70 18 -62 7 8 -7 119 -15 119 -5 0 -6 -26 -3
-57z"/>
<path d="M198 1433 c6 -2 18 -2 25 0 6 3 1 5 -13 5 -14 0 -19 -2 -12 -5z"/>
<path d="M123 1423 c9 -2 25 -2 35 0 9 3 1 5 -18 5 -19 0 -27 -2 -17 -5z"/>
<path d="M2643 1423 c9 -2 25 -2 35 0 9 3 1 5 -18 5 -19 0 -27 -2 -17 -5z"/>
<path d="M2586 1411 c-4 -5 3 -7 14 -4 23 6 26 13 6 13 -8 0 -17 -4 -20 -9z"/>
<path d="M2633 1393 c9 -2 23 -2 30 0 6 3 -1 5 -18 5 -16 0 -22 -2 -12 -5z"/>
<path d="M1198 1383 c7 -3 16 -2 19 1 4 3 -2 6 -13 5 -11 0 -14 -3 -6 -6z"/>
<path d="M1408 1375 c-3 -11 -9 -29 -13 -40 -3 -11 1 -7 10 8 9 16 15 33 12
40 -2 6 -6 3 -9 -8z"/>
<path d="M2588 1383 c7 -3 16 -2 19 1 4 3 -2 6 -13 5 -11 0 -14 -3 -6 -6z"/>
<path d="M283 1353 c15 -2 37 -2 50 0 12 2 0 4 -28 4 -27 0 -38 -2 -22 -4z"/>
<path d="M2618 1353 c7 -3 16 -2 19 1 4 3 -2 6 -13 5 -11 0 -14 -3 -6 -6z"/>
<path d="M2552 1310 c0 -14 2 -19 5 -12 2 6 2 18 0 25 -3 6 -5 1 -5 -13z"/>
<path d="M273 1273 c9 -2 23 -2 30 0 6 3 -1 5 -18 5 -16 0 -22 -2 -12 -5z"/>
<path d="M348 1273 c6 -2 18 -2 25 0 6 3 1 5 -13 5 -14 0 -19 -2 -12 -5z"/>
<path d="M2748 1273 c7 -3 16 -2 19 1 4 3 -2 6 -13 5 -11 0 -14 -3 -6 -6z"/>
<path d="M3295 1270 c27 -12 43 -12 25 0 -8 5 -22 9 -30 9 -10 0 -8 -3 5 -9z"/>
<path d="M2538 1247 c-3 -19 -2 -25 4 -19 6 6 8 18 6 28 -3 14 -5 12 -10 -9z"/>
<path d="M2708 1263 c7 -3 16 -2 19 1 4 3 -2 6 -13 5 -11 0 -14 -3 -6 -6z"/>
<path d="M2798 1263 c6 -2 18 -2 25 0 6 3 1 5 -13 5 -14 0 -19 -2 -12 -5z"/>
<path d="M2668 1253 c7 -3 16 -2 19 1 4 3 -2 6 -13 5 -11 0 -14 -3 -6 -6z"/>
<path d="M2364 1234 c-18 -14 -18 -15 4 -4 12 6 22 13 22 15 0 8 -5 6 -26 -11z"/>
<path d="M2718 1243 c6 -2 18 -2 25 0 6 3 1 5 -13 5 -14 0 -19 -2 -12 -5z"/>
<path d="M2808 1243 c7 -3 16 -2 19 1 4 3 -2 6 -13 5 -11 0 -14 -3 -6 -6z"/>
<path d="M3418 1225 c30 -14 57 -25 60 -25 13 1 -83 49 -98 49 -8 1 9 -10 38
-24z"/>
<path d="M2798 1213 c6 -2 18 -2 25 0 6 3 1 5 -13 5 -14 0 -19 -2 -12 -5z"/>
<path d="M1360 1187 c-14 -5 -34 -9 -45 -8 -11 1 -29 -5 -40 -13 -13 -10 -15
-15 -6 -16 11 0 11 -3 1 -15 -13 -16 -1 -21 16 -6 5 4 24 11 42 15 25 4 31 3
26 -7 -5 -8 -2 -7 9 2 9 7 17 19 17 26 0 8 5 15 12 17 7 3 8 7 3 10 -6 3 -21
1 -35 -5z m10 -11 c0 -2 -7 -7 -16 -10 -8 -3 -12 -2 -9 4 6 10 25 14 25 6z
m-65 -16 c-3 -5 -11 -10 -16 -10 -6 0 -7 5 -4 10 3 6 11 10 16 10 6 0 7 -4 4
-10z"/>
<path d="M3380 1196 c0 -3 9 -10 20 -16 11 -6 20 -8 20 -6 0 3 -9 10 -20 16
-11 6 -20 8 -20 6z"/>
<path d="M3390 1169 c3 -3 34 -32 69 -65 35 -32 57 -47 47 -33 -15 24 -73 75
-106 94 -8 4 -13 6 -10 4z"/>
<path d="M3048 1143 c12 -2 32 -2 45 0 12 2 2 4 -23 4 -25 0 -35 -2 -22 -4z"/>
<path d="M486 1118 c-10 -38 -7 -288 3 -288 6 0 11 63 13 148 3 141 -2 189
-16 140z"/>
<path d="M2978 1133 c7 -3 16 -2 19 1 4 3 -2 6 -13 5 -11 0 -14 -3 -6 -6z"/>
<path d="M2920 1120 c0 -5 7 -7 15 -4 8 4 15 8 15 10 0 2 -7 4 -15 4 -8 0 -15
-4 -15 -10z"/>
<path d="M3073 1103 c9 -2 23 -2 30 0 6 3 -1 5 -18 5 -16 0 -22 -2 -12 -5z"/>
<path d="M3461 1074 c19 -22 36 -39 39 -37 2 2 -13 20 -35 41 l-39 37 35 -41z"/>
<path d="M2996 1091 c-4 -5 3 -7 14 -4 23 6 26 13 6 13 -8 0 -17 -4 -20 -9z"/>
<path d="M3173 1083 c9 -2 23 -2 30 0 6 3 -1 5 -18 5 -16 0 -22 -2 -12 -5z"/>
<path d="M3088 1073 c6 -2 18 -2 25 0 6 3 1 5 -13 5 -14 0 -19 -2 -12 -5z"/>
<path d="M3258 1063 c6 -2 18 -2 25 0 6 3 1 5 -13 5 -14 0 -19 -2 -12 -5z"/>
<path d="M3173 1053 c9 -2 23 -2 30 0 6 3 -1 5 -18 5 -16 0 -22 -2 -12 -5z"/>
<path d="M3098 1043 c7 -3 16 -2 19 1 4 3 -2 6 -13 5 -11 0 -14 -3 -6 -6z"/>
<path d="M3248 1033 c12 -2 32 -2 45 0 12 2 2 4 -23 4 -25 0 -35 -2 -22 -4z"/>
<path d="M552 995 c-18 -13 -27 -25 -21 -27 15 -5 24 -159 9 -168 -8 -5 -5
-19 11 -46 44 -78 76 -98 64 -42 -4 18 -7 54 -6 80 0 35 -3 46 -13 42 -7 -3
-18 2 -25 10 -10 12 -9 14 8 9 20 -5 21 -1 21 81 0 47 -3 86 -7 85 -5 0 -23
-11 -41 -24z m33 -35 c3 -5 2 -10 -4 -10 -5 0 -13 5 -16 10 -3 6 -2 10 4 10 5
0 13 -4 16 -10z m-4 -157 c13 -16 12 -17 -3 -4 -10 7 -18 15 -18 17 0 8 8 3
21 -13z m19 -64 c0 -17 -4 -28 -10 -24 -5 3 -8 16 -6 28 6 28 5 27 11 27 3 0
5 -14 5 -31z"/>
<path d="M2541 997 c-6 -8 -7 -18 -3 -22 4 -5 1 -5 -6 -1 -7 4 -20 2 -29 -6
-14 -11 -15 -10 -8 12 9 31 2 25 -20 -19 l-17 -33 23 16 c32 22 42 20 29 -6
-9 -18 -6 -17 10 5 13 16 32 28 48 28 25 2 25 2 4 6 -19 4 -21 7 -11 19 7 8 7
14 1 14 -5 0 -15 -6 -21 -13z"/>
<path d="M3510 932 c-33 -50 -36 -56 -16 -49 14 6 16 -4 16 -74 0 -52 -5 -90
-15 -109 -19 -37 -10 -38 27 -3 l28 27 0 -31 c0 -17 -9 -42 -20 -56 -26 -33
-111 -81 -197 -112 -37 -13 -61 -24 -52 -25 50 -1 259 110 272 144 3 7 8 44
11 82 3 45 2 59 -3 39 -8 -29 -9 -29 -11 -5 -2 14 -2 67 0 118 1 50 -2 92 -6
92 -5 0 -20 -17 -34 -38z"/>
<path d="M672 948 c-16 -20 -18 -311 -2 -316 9 -3 11 3 6 23 -4 15 -3 24 2 21
12 -7 26 233 15 262 -8 20 -11 21 -21 10z"/>
<path d="M3188 953 c7 -3 16 -2 19 1 4 3 -2 6 -13 5 -11 0 -14 -3 -6 -6z"/>
<path d="M2375 914 c-27 -18 -46 -34 -42 -34 10 0 97 59 97 65 0 7 -1 7 -55
-31z"/>
<path d="M1655 910 c-27 -10 -43 -18 -35 -18 8 0 38 8 65 18 28 10 43 18 35
18 -8 0 -37 -8 -65 -18z"/>
<path d="M3407 904 c-11 -11 -8 -314 2 -314 20 0 24 27 22 164 -2 132 -7 166
-24 150z m10 -296 c-3 -7 -5 -2 -5 12 0 14 2 19 5 13 2 -7 2 -19 0 -25z"/>
<path d="M1504 879 c-16 -17 -16 -22 -4 -29 12 -8 11 -10 -4 -10 -11 0 -17 -3
-13 -6 3 -3 14 -3 25 0 13 4 19 16 19 36 0 17 -1 30 -2 30 -1 0 -10 -9 -21
-21z"/>
<path d="M1569 895 c-1 -6 -1 -13 0 -17 0 -5 -5 -7 -11 -5 -7 1 -13 -5 -13
-13 0 -8 -4 -22 -9 -30 -5 -8 6 0 25 17 26 26 31 35 21 45 -7 7 -13 8 -13 3z"/>
<path d="M3572 880 c0 -14 2 -19 5 -12 2 6 2 18 0 25 -3 6 -5 1 -5 -13z"/>
<path d="M777 849 c-9 -6 -14 -15 -11 -21 4 -7 2 -8 -5 -4 -20 13 -44 -62 -39
-125 5 -70 27 -105 83 -130 51 -23 94 -13 116 28 31 59 -1 211 -52 247 -26 18
-65 20 -92 5z m82 -16 c23 -15 24 -20 18 -109 -6 -97 -22 -149 -47 -149 -25 0
-52 71 -57 154 -5 71 -4 80 16 100 25 25 39 26 70 4z m-105 -82 c3 -5 -1 -11
-9 -14 -9 -4 -12 -1 -8 9 6 16 10 17 17 5z m156 -1 c0 -5 -2 -10 -4 -10 -3 0
-8 5 -11 10 -3 6 -1 10 4 10 6 0 11 -4 11 -10z m7 -26 c-3 -3 -12 -4 -19 -1
-8 3 -5 6 6 6 11 1 17 -2 13 -5z m-160 -34 c-3 -11 -1 -20 4 -20 5 0 9 -5 9
-10 0 -7 -7 -7 -21 1 -17 9 -19 13 -8 20 12 8 12 11 -1 19 -13 8 -12 10 4 10
13 0 17 -5 13 -20z m159 11 c-4 -5 -2 -11 4 -13 5 -2 6 -9 1 -17 -5 -7 -14
-10 -20 -7 -17 11 -13 46 5 46 8 0 13 -4 10 -9z m-3 -58 c-7 -2 -19 -2 -25 0
-7 3 -2 5 12 5 14 0 19 -2 13 -5z m-133 -19 c0 -2 -7 -4 -15 -4 -8 0 -15 4
-15 10 0 5 7 7 15 4 8 -4 15 -8 15 -10z m135 -4 c-3 -5 -16 -10 -28 -10 -18 0
-19 2 -7 10 20 13 43 13 35 0z m-130 -20 c3 -5 2 -10 -4 -10 -5 0 -13 5 -16
10 -3 6 -2 10 4 10 5 0 13 -4 16 -10z"/>
<path d="M3561 845 c1 -19 18 -51 18 -35 0 8 -4 22 -9 30 -5 8 -9 11 -9 5z"/>
<path d="M3061 831 c-11 -7 -13 -39 -11 -152 3 -188 3 -193 24 -197 14 -3 17
4 16 35 -1 21 -1 90 -1 153 1 131 -7 174 -28 161z m15 -196 c-1 -8 -5 -17 -8
-21 -5 -4 -4 16 1 34 3 9 9 -1 7 -13z"/>
<path d="M3228 833 c-66 -10 -110 -176 -62 -239 33 -44 55 -55 84 -41 48 24
100 131 100 205 0 21 -9 38 -31 56 -30 26 -37 27 -91 19z m62 -22 c16 -30 12
-155 -6 -200 -16 -40 -40 -59 -56 -43 -19 19 -30 136 -17 194 11 57 12 57 61
67 4 0 12 -8 18 -18z m50 -53 c0 -17 -23 -3 -26 16 -2 14 0 15 12 5 8 -6 14
-16 14 -21z m-146 -6 c-11 -7 -12 -40 -1 -83 5 -20 3 -25 -13 -25 -11 0 -20 6
-20 14 0 8 5 10 13 6 8 -5 8 -2 -2 9 -11 14 -11 17 0 17 9 0 10 3 4 8 -6 4
-10 13 -9 20 1 6 2 19 3 27 0 8 9 15 19 15 10 0 13 -3 6 -8z m136 -42 c0 -11
-4 -20 -9 -20 -5 0 -7 9 -4 20 3 11 7 20 9 20 2 0 4 -9 4 -20z m-135 -90 c-3
-5 -12 -10 -18 -10 -7 0 -6 4 3 10 19 12 23 12 15 0z"/>
<path d="M993 808 c-11 -18 -5 -330 7 -342 15 -15 18 6 24 172 5 126 3 156 -8
168 -12 11 -16 11 -23 2z m22 -66 c-3 -3 -11 0 -18 7 -9 10 -8 11 6 5 10 -3
15 -9 12 -12z m5 -27 c0 -2 -7 -5 -15 -9 -9 -3 -15 0 -15 9 0 9 6 12 15 9 8
-4 15 -7 15 -9z m-13 -97 c-3 -8 -6 -5 -6 6 -1 11 2 17 5 13 3 -3 4 -12 1 -19z"/>
<path d="M350 800 c-11 -8 -7 -9 15 -4 37 8 45 14 19 14 -10 0 -26 -5 -34 -10z"/>
<path d="M2647 783 c-4 -3 -7 -35 -7 -69 0 -52 3 -62 15 -58 8 4 15 1 15 -5 0
-6 -7 -11 -15 -11 -8 0 -15 -9 -15 -20 0 -11 4 -20 10 -20 5 0 7 7 4 15 -4 8
-2 15 3 15 5 0 9 -9 10 -20 1 -11 -4 -20 -13 -20 -8 0 -14 -4 -14 -10 0 -5 6
-7 14 -4 10 4 13 -3 11 -25 -1 -18 2 -31 9 -31 8 0 10 36 8 122 -2 68 -5 129
-7 136 -5 13 -18 16 -28 5z"/>
<path d="M2887 766 c-9 -13 -32 -34 -51 -46 -41 -25 -46 -40 -15 -40 21 0 22
-3 16 -67 -4 -38 -7 -83 -7 -101 0 -25 -6 -35 -25 -44 -36 -16 -31 -28 7 -17
18 5 47 9 64 9 17 0 46 5 64 12 30 10 31 12 13 19 -26 9 -33 51 -33 192 0 59
-4 107 -9 107 -5 0 -16 -11 -24 -24z m13 -86 c-8 -5 -19 -10 -25 -10 -5 0 -3
5 5 10 8 5 20 10 25 10 6 0 3 -5 -5 -10z m0 -55 c0 -17 -25 -20 -35 -5 -4 6 1
7 11 3 12 -4 15 -3 10 5 -4 7 -2 12 3 12 6 0 11 -7 11 -15z m0 -35 c-8 -5 -10
-10 -3 -10 6 0 10 -11 8 -25 -1 -14 3 -25 8 -25 16 0 -4 -17 -30 -24 -16 -5
-21 -3 -19 10 2 10 11 20 21 24 13 5 15 9 7 14 -7 4 -18 4 -24 1 -7 -4 -4 1 6
9 11 9 16 16 12 16 -4 0 -4 5 -1 10 3 6 12 10 18 10 7 0 6 -4 -3 -10z m-53
-62 c-3 -8 -6 -5 -6 6 -1 11 2 17 5 13 3 -3 4 -12 1 -19z m63 -38 c-8 -5 -19
-10 -25 -10 -5 0 -3 5 5 10 8 5 20 10 25 10 6 0 3 -5 -5 -10z"/>
<path d="M2878 523 c7 -3 16 -2 19 1 4 3 -2 6 -13 5 -11 0 -14 -3 -6 -6z"/>
<path d="M358 773 c7 -3 16 -2 19 1 4 3 -2 6 -13 5 -11 0 -14 -3 -6 -6z"/>
<path d="M1186 752 c-3 -6 -30 -16 -58 -23 -51 -12 -52 -13 -25 -21 21 -8 27
-16 28 -39 1 -16 2 -37 3 -46 0 -10 10 -21 21 -25 19 -6 18 -6 -3 -7 -13 -1
-22 -7 -21 -13 6 -47 -2 -87 -18 -90 -21 -5 33 -31 86 -43 32 -7 45 10 16 21
-11 4 -15 21 -15 56 0 48 -1 50 -25 46 -14 -3 -25 -1 -25 3 0 8 23 13 43 10 4
0 7 12 7 28 0 25 -5 30 -27 34 l-28 4 27 2 c20 1 28 7 32 29 9 41 -4 96 -18
74z m-1 -82 c-3 -5 -14 -10 -23 -9 -14 0 -13 2 3 9 27 11 27 11 20 0z m5 -56
c0 -14 -3 -15 -17 -3 -10 7 -20 15 -22 16 -2 2 5 3 17 3 14 0 22 -6 22 -16z
m-3 -79 c0 -17 0 -17 -21 -9 -22 8 -20 24 2 24 10 0 19 -7 19 -15z m0 -31 c-3
-3 -12 -4 -19 -1 -8 3 -5 6 6 6 11 1 17 -2 13 -5z m-4 -31 c-7 -2 -21 -2 -30
0 -10 3 -4 5 12 5 17 0 24 -2 18 -5z"/>
<path d="M1315 589 c6 -132 5 -163 -6 -170 -11 -7 -11 -9 3 -9 9 0 18 -5 20
-12 2 -6 10 -8 16 -4 8 5 12 39 12 101 0 80 -2 93 -15 89 -8 -4 -15 -1 -15 5
0 6 5 11 10 11 13 0 13 91 0 124 -5 14 -15 26 -21 26 -8 0 -9 -44 -4 -161z
m25 31 c0 -5 -5 -10 -11 -10 -5 0 -7 5 -4 10 3 6 8 10 11 10 2 0 4 -4 4 -10z
m10 -71 c0 -5 -4 -9 -10 -9 -5 0 -10 7 -10 16 0 8 5 12 10 9 6 -3 10 -10 10
-16z m0 -59 c0 -5 -4 -10 -10 -10 -5 0 -10 5 -10 10 0 6 5 10 10 10 6 0 10 -4
10 -10z m0 -60 c0 -5 -2 -10 -4 -10 -3 0 -8 5 -11 10 -3 6 -1 10 4 10 6 0 11
-4 11 -10z"/>
<path d="M2420 709 c-62 -25 -120 -124 -120 -206 0 -67 55 -123 121 -123 51 0
117 47 147 105 25 49 -9 147 -70 199 -46 40 -43 39 -78 25z m53 -56 c9 -27 18
-72 19 -101 0 -29 4 -49 7 -44 3 5 13 12 21 15 12 4 12 6 -1 6 -12 1 -17 10
-17 34 0 31 2 33 25 29 18 -3 21 -7 11 -13 -10 -7 -9 -9 5 -9 15 0 18 -7 14
-37 -2 -27 -8 -37 -19 -35 -8 1 -15 -5 -15 -13 0 -8 5 -15 11 -15 6 0 4 -5 -4
-10 -18 -12 -33 -13 -26 -2 2 4 1 14 -5 22 -7 12 -9 10 -9 -7 0 -12 -3 -30 -7
-40 -6 -16 -5 -16 10 -4 10 8 20 11 23 8 3 -3 -4 -10 -15 -17 -12 -6 -21 -8
-21 -5 0 4 -7 -1 -16 -9 -16 -17 -41 -20 -69 -10 -13 5 -14 8 -3 15 11 7 11 9
0 9 -7 0 -20 7 -28 15 -11 11 -12 15 -3 15 10 0 10 3 1 12 -39 39 26 238 77
238 11 0 23 -16 34 -47z m44 1 c-3 -3 -12 -4 -19 -1 -8 3 -5 6 6 6 11 1 17 -2
13 -5z m-147 -24 c0 -5 -4 -10 -10 -10 -5 0 -10 -7 -10 -15 0 -8 -4 -15 -10
-15 -13 0 -13 6 0 31 11 20 30 26 30 9z m160 0 c8 -5 11 -10 5 -10 -5 0 -3 -5
5 -11 12 -8 10 -9 -8 -7 -12 2 -22 7 -22 12 1 5 -4 13 -12 17 -10 7 -10 9 2 9
8 0 22 -5 30 -10z m-183 -56 c-3 -3 -12 -4 -19 -1 -8 3 -5 6 6 6 11 1 17 -2
13 -5z m-7 -18 c0 -3 -4 -8 -10 -11 -5 -3 -10 -1 -10 4 0 6 5 11 10 11 6 0 10
-2 10 -4z"/>
<path d="M2518 543 c6 -2 18 -2 25 0 6 3 1 5 -13 5 -14 0 -19 -2 -12 -5z"/>
<path d="M1471 698 c-45 -24 -66 -64 -68 -131 -2 -83 32 -158 83 -182 34 -16
39 -16 81 0 35 14 48 25 60 54 40 93 21 189 -45 234 -48 33 -81 40 -111 25z
m111 -41 c14 -22 19 -144 8 -187 -9 -34 -9 -45 2 -52 10 -8 10 -9 -2 -5 -8 2
-24 -4 -36 -15 -17 -15 -26 -17 -47 -9 -47 18 -58 120 -25 246 15 60 24 67 62
48 17 -9 34 -20 38 -26z m-120 -5 c-7 -2 -10 -8 -6 -13 3 -5 -4 -9 -16 -9 -17
0 -19 3 -10 20 7 12 16 17 27 13 11 -4 13 -8 5 -11z m-2 -48 c0 -2 -9 -4 -20
-4 -11 0 -20 4 -20 9 0 5 9 7 20 4 11 -3 20 -7 20 -9z m0 -39 c0 -20 -5 -25
-25 -25 -14 0 -25 4 -25 10 0 5 6 7 14 4 9 -3 17 3 21 15 9 28 15 26 15 -4z
m170 10 c10 -12 10 -15 -2 -15 -8 0 -15 7 -15 15 0 8 1 15 2 15 2 0 8 -7 15
-15z m8 -43 c2 -7 -3 -12 -10 -12 -8 0 -15 7 -15 15 0 18 19 15 25 -3z m-188
-27 c0 -14 -5 -25 -11 -25 -5 0 -7 5 -4 10 3 6 0 10 -7 11 -10 0 -10 2 1 6 11
5 11 7 0 14 -11 7 -10 9 4 9 12 0 17 -8 17 -25z m180 -25 c0 -5 -5 -10 -11
-10 -5 0 -7 -4 -4 -10 3 -5 1 -10 -5 -10 -6 0 -8 -4 -5 -10 3 -5 1 -10 -5 -10
-7 0 -9 7 -6 16 3 9 6 22 6 30 0 8 7 14 15 14 8 0 15 -4 15 -10z"/>
<path d="M438 683 c7 -3 16 -2 19 1 4 3 -2 6 -13 5 -11 0 -14 -3 -6 -6z"/>
<path d="M383 673 c9 -2 23 -2 30 0 6 3 -1 5 -18 5 -16 0 -22 -2 -12 -5z"/>
<path d="M498 603 c7 -3 16 -2 19 1 4 3 -2 6 -13 5 -11 0 -14 -3 -6 -6z"/>
<path d="M458 593 c7 -3 16 -2 19 1 4 3 -2 6 -13 5 -11 0 -14 -3 -6 -6z"/>
<path d="M2640 485 c0 -59 3 -77 15 -82 22 -8 23 -5 26 52 3 43 0 50 -15 47
-14 -3 -17 2 -13 27 3 17 1 31 -4 31 -5 0 -9 -34 -9 -75z m28 -40 c0 -14 -3
-25 -7 -25 -4 0 -8 11 -9 25 -1 14 2 25 7 25 5 0 9 -11 9 -25z"/>
<path d="M3208 484 c-4 -3 -28 -12 -55 -20 -45 -13 -45 -13 -8 -8 38 5 102 33
79 34 -6 0 -13 -3 -16 -6z"/>
<path d="M725 460 c-13 -5 -14 -9 -5 -9 8 0 24 4 35 9 13 5 14 9 5 9 -8 0 -24
-4 -35 -9z"/>
<path d="M790 450 c-18 -12 -2 -12 25 0 13 6 15 9 5 9 -8 0 -22 -4 -30 -9z"/>
<path d="M3025 430 c-27 -10 -43 -18 -35 -18 8 0 38 8 65 18 28 10 43 18 35
18 -8 0 -37 -8 -65 -18z"/>
<path d="M948 423 c7 -3 16 -2 19 1 4 3 -2 6 -13 5 -11 0 -14 -3 -6 -6z"/>
<path d="M684 404 c-18 -14 -18 -14 6 -3 31 14 36 19 24 19 -6 0 -19 -7 -30
-16z"/>
<path d="M908 413 c7 -3 16 -2 19 1 4 3 -2 6 -13 5 -11 0 -14 -3 -6 -6z"/>
<path d="M1101 416 c8 -8 251 -78 255 -73 3 2 -24 12 -58 22 -35 9 -88 26
-118 36 -50 18 -89 25 -79 15z"/>
<path d="M2915 400 c-27 -7 -28 -8 -5 -8 14 0 34 3 45 8 25 11 2 11 -40 0z"/>
<path d="M828 393 c7 -3 16 -2 19 1 4 3 -2 6 -13 5 -11 0 -14 -3 -6 -6z"/>
<path d="M2825 380 c-25 -11 1 -11 35 0 20 6 21 8 5 8 -11 0 -29 -3 -40 -8z"/>
<path d="M2710 370 c25 -8 97 -13 89 -6 -2 2 -29 6 -59 9 -36 4 -46 3 -30 -3z"/>
<path d="M2613 363 c15 -2 37 -2 50 0 12 2 0 4 -28 4 -27 0 -38 -2 -22 -4z"/>
<path d="M1465 210 l-40 -7 37 -2 c20 0 40 4 43 9 3 6 5 9 3 9 -2 -1 -21 -5
-43 -9z"/>
<path d="M1398 193 c7 -3 16 -2 19 1 4 3 -2 6 -13 5 -11 0 -14 -3 -6 -6z"/>
<path d="M2283 183 c9 -2 25 -2 35 0 9 3 1 5 -18 5 -19 0 -27 -2 -17 -5z"/>
<path d="M1593 173 c9 -2 25 -2 35 0 9 3 1 5 -18 5 -19 0 -27 -2 -17 -5z"/>
<path d="M1538 163 c6 -2 18 -2 25 0 6 3 1 5 -13 5 -14 0 -19 -2 -12 -5z"/>
<path d="M1755 160 c-19 -8 -19 -9 3 -9 12 -1 22 4 22 9 0 6 -1 10 -2 9 -2 0
-12 -4 -23 -9z"/>
<path d="M1488 153 c6 -2 18 -2 25 0 6 3 1 5 -13 5 -14 0 -19 -2 -12 -5z"/>
<path d="M1438 143 c6 -2 18 -2 25 0 6 3 1 5 -13 5 -14 0 -19 -2 -12 -5z"/>
<path d="M1668 143 c12 -2 30 -2 40 0 9 3 -1 5 -23 4 -22 0 -30 -2 -17 -4z"/>
<path d="M1386 131 c-4 -5 3 -7 14 -4 23 6 26 13 6 13 -8 0 -17 -4 -20 -9z"/>
<path d="M1598 133 c6 -2 18 -2 25 0 6 3 1 5 -13 5 -14 0 -19 -2 -12 -5z"/>
<path d="M1743 133 c9 -2 25 -2 35 0 9 3 1 5 -18 5 -19 0 -27 -2 -17 -5z"/>
<path d="M1558 123 c7 -3 16 -2 19 1 4 3 -2 6 -13 5 -11 0 -14 -3 -6 -6z"/>
<path d="M1678 123 c7 -3 16 -2 19 1 4 3 -2 6 -13 5 -11 0 -14 -3 -6 -6z"/>
<path d="M1500 110 c-18 -12 -2 -12 25 0 13 6 15 9 5 9 -8 0 -22 -4 -30 -9z"/>
<path d="M1618 113 c6 -2 18 -2 25 0 6 3 1 5 -13 5 -14 0 -19 -2 -12 -5z"/>
<path d="M1578 103 c7 -3 16 -2 19 1 4 3 -2 6 -13 5 -11 0 -14 -3 -6 -6z"/>
</g>
</svg>
